<svg width="3463" height="854" viewBox="0 0 3463 854" fill="none" xmlns="http://www.w3.org/2000/svg">
<path d="M1411.05 706.06C1404.15 705.073 1397.49 704.58 1391.07 704.58C1385.15 704.58 1379.48 704.827 1374.05 705.32C1368.13 705.813 1362.46 706.307 1357.03 706.8C1340.75 708.28 1324.72 710.993 1308.93 714.94C1293.64 718.887 1277.85 722.833 1261.57 726.78C1245.29 731.22 1228.27 735.413 1210.51 739.36C1193.25 743.8 1174.5 747.007 1154.27 748.98C1108.39 753.42 1071.64 751.693 1044.01 743.8C1036.12 756.133 1027.49 765.507 1018.11 771.92C1009.23 778.333 1000.6 783.02 992.212 785.98C982.839 789.433 973.465 791.407 964.092 791.9C941.892 794.367 920.432 788.447 899.712 774.14C878.992 760.327 862.465 738.62 850.132 709.02C838.292 679.42 831.879 642.173 830.892 597.28C830.399 552.88 839.032 501.573 856.792 443.36C796.112 447.307 739.379 447.307 686.592 443.36C628.379 485.293 573.125 519.827 520.832 546.96C467.552 575.08 416.492 596.047 367.652 609.86C353.345 613.807 338.545 617.013 323.252 619.48C310.425 621.947 296.119 624.167 280.332 626.14C264.545 628.113 249.252 628.853 234.452 628.36C140.719 626.387 74.3654 601.227 35.392 552.88C25.032 540.547 17.3854 527.967 12.452 515.14C7.5187 502.313 4.31204 490.72 2.83204 480.36C1.35203 469.507 0.858698 460.627 1.35203 453.72C1.84537 446.32 2.09203 441.88 2.09203 440.4C3.57204 429.053 6.7787 415.98 11.712 401.18C17.1387 386.38 25.772 371.58 37.612 356.78C51.4254 339.513 68.9387 325.947 90.152 316.08C92.1254 315.093 96.5654 313.12 103.472 310.16C110.872 307.2 120.492 304.487 132.332 302.02C144.172 299.553 157.985 297.827 173.772 296.84C190.052 295.853 207.812 297.087 227.052 300.54C227.545 301.033 228.532 301.28 230.012 301.28C245.799 303.747 263.312 307.693 282.552 313.12C301.792 318.053 325.225 325.453 352.852 335.32C353.839 335.32 360.745 337.293 373.572 341.24C386.399 345.187 403.665 350.12 425.372 356.04C447.079 361.96 472.485 368.373 501.592 375.28C530.699 382.187 562.025 388.6 595.572 394.52C608.399 396.987 620.979 399.207 633.312 401.18C645.645 402.66 657.979 404.387 670.312 406.36C714.712 375.28 757.139 343.213 797.592 310.16C838.539 277.107 876.279 245.287 910.812 214.7C945.345 184.113 975.685 156.24 1001.83 131.08C1027.98 105.427 1048.95 84.7066 1064.73 68.92C1083.48 48.6933 1100.01 34.14 1114.31 25.26C1128.62 15.8866 1140.71 9.47331 1150.57 6.01999C1162.41 2.07332 1172.53 0.839971 1180.91 2.31995C1188.81 4.78665 1193.74 9.22665 1195.71 15.64C1196.7 18.6 1197.19 21.56 1197.19 24.52C1154.77 44.7466 1111.35 88.4066 1066.95 155.5C1022.55 222.1 977.905 307.94 933.012 413.02C966.065 409.567 996.899 403.153 1025.51 393.78C1028.97 392.793 1032.17 393.287 1035.13 395.26C1038.59 396.74 1040.81 399.207 1041.79 402.66C1044.26 410.553 1041.55 415.733 1033.65 418.2C1016.88 423.627 999.365 428.067 981.112 431.52C962.859 434.48 943.372 437.193 922.652 439.66C903.905 488.993 892.559 535.12 888.612 578.04C884.665 620.467 885.899 656.727 892.312 686.82C899.219 717.407 910.319 740.347 925.612 755.64C940.905 770.933 958.665 775.867 978.892 770.44C990.239 767.973 999.859 763.78 1007.75 757.86C1015.65 751.94 1022.31 745.773 1027.73 739.36C1001.59 729 986.292 713.707 981.852 693.48C979.385 683.12 980.125 673.747 984.072 665.36C988.512 656.973 994.185 650.56 1001.09 646.12C1008.49 641.68 1016.39 639.46 1024.77 639.46C1033.16 639.953 1040.81 643.407 1047.71 649.82C1053.63 655.247 1057.58 661.167 1059.55 667.58C1062.02 673.993 1063.25 680.16 1063.25 686.08C1063.25 692 1062.51 697.18 1061.03 701.62C1060.05 706.553 1059.31 710.007 1058.81 711.98C1093.35 717.9 1127.14 718.887 1160.19 714.94C1193.25 710.993 1228.27 705.32 1265.27 697.92C1280.07 694.96 1293.64 692.493 1305.97 690.52C1318.8 689.04 1330.15 687.807 1340.01 686.82C1343.96 686.327 1350.13 685.587 1358.51 684.6C1367.39 684.107 1377.51 683.613 1388.85 683.12C1400.69 683.12 1413.52 683.367 1427.33 683.86C1441.15 684.353 1455.21 685.587 1469.51 687.56C1491.71 690.027 1510.95 694.22 1527.23 700.14C1544.01 706.06 1558.07 711.98 1569.41 717.9C1582.24 724.807 1593.59 732.453 1603.45 740.84C1610.36 747.253 1614.55 753.173 1616.03 758.6C1618.01 764.52 1618.99 769.453 1618.99 773.4C1618.5 778.333 1617.27 782.773 1615.29 786.72C1610.85 792.147 1605.92 795.847 1600.49 797.82C1595.56 799.793 1589.64 800.04 1582.73 798.56C1575.83 797.573 1567.93 792.887 1559.05 784.5C1536.85 763.287 1516.87 746.76 1499.11 734.92C1493.19 730.48 1485.79 726.287 1476.91 722.34C1469.51 718.887 1460.39 715.68 1449.53 712.72C1438.68 709.76 1425.85 707.54 1411.05 706.06ZM54.632 537.34C62.032 546.22 70.4187 553.867 79.792 560.28C83.2454 562.747 90.892 567.187 102.732 573.6C115.065 580.013 130.112 585.193 147.872 589.14C182.405 597.527 219.159 599.253 258.132 594.32C297.105 589.387 336.819 579.767 377.272 565.46C418.219 551.153 459.412 532.9 500.852 510.7C542.785 488.5 583.979 464.08 624.432 437.44C575.099 432.013 529.465 424.613 487.532 415.24C445.599 405.867 407.119 396.247 372.092 386.38C337.065 376.02 305.739 366.4 278.112 357.52C250.485 348.64 226.559 341.98 206.332 337.54C184.132 332.607 164.645 330.88 147.872 332.36C131.099 333.84 116.545 336.8 104.212 341.24C92.372 345.68 82.5054 350.86 74.612 356.78C67.212 362.7 61.5387 367.88 57.592 372.32C46.2454 386.133 38.5987 399.7 34.652 413.02C30.7054 426.34 28.2387 436.453 27.252 443.36V444.1C26.7587 447.06 26.512 450.02 26.512 452.98C26.512 455.447 26.512 458.653 26.512 462.6C26.512 466.547 27.0054 470.74 27.992 475.18C30.952 498.86 39.832 519.58 54.632 537.34ZM728.032 413.02C752.699 415.487 776.379 417.213 799.072 418.2C821.765 418.693 843.719 418.693 864.932 418.2C871.345 399.453 878.745 379.967 887.132 359.74C895.519 339.513 905.385 318.547 916.732 296.84C925.119 280.067 933.259 264.28 941.152 249.48C949.539 234.68 957.679 220.62 965.572 207.3C941.892 229.993 915.745 254.167 887.132 279.82C859.012 305.473 828.919 331.62 796.852 358.26C785.505 368.127 773.912 377.5 762.072 386.38C750.725 395.26 739.379 404.14 728.032 413.02ZM1025.51 703.1C1028.97 705.073 1032.91 706.553 1037.35 707.54C1039.33 708.033 1041.3 708.527 1043.27 709.02C1044.26 705.073 1044.75 701.373 1044.75 697.92C1045.25 694.467 1045.49 691.507 1045.49 689.04C1045 686.08 1044.51 683.367 1044.01 680.9C1042.04 672.513 1038.83 666.593 1034.39 663.14C1032.42 661.167 1030.2 659.933 1027.73 659.44C1024.28 658.947 1020.83 659.193 1017.37 660.18C1013.92 661.167 1010.96 662.893 1008.49 665.36C1006.03 667.827 1004.3 670.787 1003.31 674.24C1002.33 677.693 1002.57 681.147 1004.05 684.6C1006.03 688.547 1008.99 692 1012.93 694.96C1016.88 698.413 1021.07 701.127 1025.51 703.1ZM1212.93 574.34C1222.8 570.887 1231.92 565.46 1240.31 558.06C1248.7 550.167 1256.34 542.027 1263.25 533.64C1271.14 524.267 1278.54 514.153 1285.45 503.3C1293.84 490.473 1300.5 477.893 1305.43 465.56C1310.36 453.227 1314.06 442.127 1316.53 432.26C1319 420.913 1320.72 410.307 1321.71 400.44C1322.7 387.613 1321.96 376.513 1319.49 367.14C1317.02 357.767 1313.08 346.42 1307.65 333.1C1301.24 318.793 1299.26 306.213 1301.73 295.36C1304.69 284.507 1312.09 279.327 1323.93 279.82C1327.38 279.82 1330.34 281.053 1332.81 283.52C1335.77 285.493 1337.99 288.207 1339.47 291.66C1340.95 295.113 1341.94 298.567 1342.43 302.02C1343.42 305.473 1344.16 308.433 1344.65 310.9C1344.65 315.833 1345.64 320.767 1347.61 325.7C1349.09 329.647 1351.06 333.84 1353.53 338.28C1356.49 342.227 1360.44 345.433 1365.37 347.9C1369.81 351.847 1375.24 354.807 1381.65 356.78C1387.08 358.753 1393.98 359.74 1402.37 359.74C1411.25 359.74 1421.61 357.767 1433.45 353.82C1436.9 352.34 1440.6 350.86 1444.55 349.38C1447.51 348.393 1450.72 347.407 1454.17 346.42C1457.62 344.94 1460.58 343.707 1463.05 342.72C1467 341.733 1470.45 340.993 1473.41 340.5C1476.37 339.513 1478.1 339.513 1478.59 340.5C1480.07 342.967 1479.58 345.927 1477.11 349.38C1475.63 351.353 1473.16 353.82 1469.71 356.78C1466.75 359.247 1462.56 361.713 1457.13 364.18C1450.22 365.66 1443.32 367.14 1436.41 368.62C1430.49 369.607 1423.83 370.84 1416.43 372.32C1409.03 373.307 1401.88 374.047 1394.97 374.54C1386.58 375.527 1379.43 375.527 1373.51 374.54C1368.08 373.06 1363.4 371.58 1359.45 370.1C1355.01 368.127 1351.31 365.907 1348.35 363.44C1348.84 376.267 1348.1 389.587 1346.13 403.4C1344.65 415.24 1341.94 428.807 1337.99 444.1C1334.04 459.393 1327.88 474.933 1319.49 490.72C1310.61 508.973 1300.25 525.747 1288.41 541.04C1278.54 553.867 1265.96 566.2 1250.67 578.04C1235.87 589.387 1218.85 596.047 1199.61 598.02C1191.22 598.513 1184.32 597.527 1178.89 595.06C1173.46 593.087 1170.26 591.853 1169.27 591.36C1159.9 586.92 1152.74 580.507 1147.81 572.12C1142.38 563.24 1138.44 553.373 1135.97 542.52C1133.5 531.667 1132.27 520.073 1132.27 507.74C1132.27 494.913 1133.01 482.333 1134.49 470C1137.94 441.387 1144.85 410.06 1155.21 376.02C1163.6 347.9 1174.45 319.287 1187.77 290.18C1201.58 260.58 1217.12 231.967 1234.39 204.34C1224.03 204.34 1213.67 204.093 1203.31 203.6C1194.43 203.6 1184.56 203.6 1173.71 203.6C1163.35 203.107 1153.48 202.613 1144.11 202.12C1123.39 201.627 1105.38 204.093 1090.09 209.52C1074.3 214.453 1060.49 220.62 1048.65 228.02C1036.81 235.42 1026.45 242.82 1017.57 250.22C1008.69 257.62 1000.55 263.293 993.149 267.24C983.282 272.667 975.389 275.133 969.469 274.64C963.549 273.653 958.615 271.68 954.669 268.72C950.229 265.267 947.022 260.333 945.049 253.92C941.102 241.587 942.829 231.227 950.229 222.84C957.629 214.453 966.509 207.547 976.869 202.12C989.202 196.2 1003.51 191.267 1019.79 187.32C1028.18 185.84 1038.78 184.36 1051.61 182.88C1062.96 181.893 1077.51 181.4 1095.27 181.4C1112.54 180.907 1134.24 181.153 1160.39 182.14C1172.72 182.633 1184.32 182.88 1195.17 182.88C1206.02 182.387 1215.64 181.893 1224.03 181.4C1233.4 180.907 1242.04 180.413 1249.93 179.92C1263.25 160.187 1276.82 141.44 1290.63 123.68C1304.44 105.92 1318.01 90.1333 1331.33 76.32C1344.65 62.5066 1357.23 50.9133 1369.07 41.54C1380.91 32.1666 1391.76 25.7533 1401.63 22.3C1406.56 20.3266 1411.74 19.0933 1417.17 18.6C1421.61 18.1066 1426.3 18.3533 1431.23 19.34C1436.66 19.8333 1441.59 21.56 1446.03 24.52C1451.46 28.4666 1455.65 34.14 1458.61 41.54C1461.08 47.9533 1462.31 56.34 1462.31 66.7C1462.31 77.06 1459.1 89.8867 1452.69 105.18C1445.29 120.967 1435.18 135.273 1422.35 148.1C1411 159.447 1396.2 170.053 1377.95 179.92C1360.19 189.293 1337.74 195.213 1310.61 197.68C1303.7 209.52 1296.06 222.593 1287.67 236.9C1279.78 250.713 1271.64 266.007 1263.25 282.78C1242.04 327.18 1224.52 368.373 1210.71 406.36C1204.79 422.64 1199.36 439.167 1194.43 455.94C1189.5 472.22 1185.55 487.76 1182.59 502.56C1180.12 517.36 1179.14 530.68 1179.63 542.52C1180.12 554.36 1182.84 563.487 1187.77 569.9C1189.25 571.38 1191.22 572.86 1193.69 574.34C1195.66 575.327 1198.13 576.067 1201.09 576.56C1204.54 577.053 1208.49 576.313 1212.93 574.34ZM1327.63 169.56C1340.46 168.08 1351.8 165.12 1361.67 160.68C1372.03 156.24 1380.66 151.8 1387.57 147.36C1395.46 141.933 1402.37 136.26 1408.29 130.34C1419.14 118.007 1426.54 107.647 1430.49 99.26C1434.44 90.8733 1436.9 83.9666 1437.89 78.54C1438.88 72.62 1437.89 67.6866 1434.93 63.74C1433.45 62.7533 1430.49 62.0133 1426.05 61.52C1422.1 61.0267 1415.94 63.74 1407.55 69.66C1399.66 75.58 1389.05 86.1867 1375.73 101.48C1362.9 116.773 1346.87 139.467 1327.63 169.56ZM1425.86 548.44C1425.86 550.907 1426.11 553.127 1426.6 555.1C1426.6 557.073 1426.6 558.8 1426.6 560.28C1427.1 561.76 1427.34 562.993 1427.34 563.98C1427.84 567.433 1427.34 570.64 1425.86 573.6C1424.88 576.56 1422.41 578.533 1418.46 579.52C1416 580.507 1413.78 581 1411.8 581C1409.83 581 1407.36 581 1404.4 581C1401.94 580.507 1399.47 579.273 1397 577.3C1391.08 573.353 1386.64 568.667 1383.68 563.24C1379.74 555.347 1377.52 546.22 1377.02 535.86C1376.04 525.5 1376.04 515.88 1377.02 507C1378.01 496.64 1379.49 486.033 1381.46 475.18C1384.92 459.887 1389.11 444.347 1394.04 428.56C1398.98 412.773 1403.91 397.727 1408.84 383.42C1414.27 368.62 1419.45 355.053 1424.38 342.72C1429.81 330.387 1434.5 319.78 1438.44 310.9C1446.34 292.647 1454.97 274.64 1464.34 256.88C1473.72 239.12 1483.58 221.607 1493.94 204.34C1483.58 204.34 1473.22 204.093 1462.86 203.6C1453.98 203.6 1444.12 203.6 1433.26 203.6C1422.9 203.107 1413.04 202.613 1403.66 202.12C1382.94 201.627 1364.94 204.093 1349.64 209.52C1333.86 214.453 1320.04 220.62 1308.2 228.02C1296.36 235.42 1286 242.82 1277.12 250.22C1268.24 257.62 1260.1 263.293 1252.7 267.24C1242.84 272.667 1234.94 275.133 1229.02 274.64C1223.1 273.653 1218.17 271.68 1214.22 268.72C1209.78 265.267 1206.58 260.333 1204.6 253.92C1200.66 241.587 1202.38 231.227 1209.78 222.84C1217.18 214.453 1226.06 207.547 1236.42 202.12C1248.76 196.2 1263.06 191.267 1279.34 187.32C1287.73 185.84 1298.34 184.36 1311.16 182.88C1322.51 181.893 1337.06 181.4 1354.82 181.4C1372.09 180.907 1393.8 181.153 1419.94 182.14C1432.77 182.633 1444.36 182.88 1454.72 182.88C1465.58 182.387 1475.2 181.893 1483.58 181.4C1492.96 180.907 1501.59 180.413 1509.48 179.92C1522.8 160.187 1536.37 141.44 1550.18 123.68C1564 105.92 1577.56 90.1333 1590.88 76.32C1604.2 62.5066 1616.78 50.9133 1628.62 41.54C1640.46 32.1666 1651.32 25.7533 1661.18 22.3C1666.12 20.3266 1671.3 19.0933 1676.72 18.6C1681.16 18.1066 1685.85 18.3533 1690.78 19.34C1696.21 19.8333 1701.14 21.56 1705.58 24.52C1711.01 28.4666 1715.2 34.14 1718.16 41.54C1720.63 47.9533 1721.86 56.34 1721.86 66.7C1721.86 77.06 1718.66 89.8867 1712.24 105.18C1704.84 120.967 1694.73 135.273 1681.9 148.1C1670.56 159.447 1655.76 170.053 1637.5 179.92C1619.74 189.293 1597.3 195.213 1570.16 197.68C1563.26 209.52 1556.6 221.607 1550.18 233.94C1544.76 244.3 1538.59 255.4 1531.68 267.24C1525.27 279.08 1519.35 290.18 1513.92 300.54C1507.02 314.353 1499.86 328.907 1492.46 344.2C1486.05 357.52 1479.14 372.567 1471.74 389.34C1464.84 406.113 1458.18 423.133 1451.76 440.4C1456.2 433.987 1460.89 427.08 1465.82 419.68C1471.25 412.28 1477.17 405.127 1483.58 398.22C1492.96 386.873 1503.07 375.527 1513.92 364.18C1525.27 352.833 1536.86 342.473 1548.7 333.1C1560.54 323.727 1572.38 315.833 1584.22 309.42C1596.06 302.513 1607.66 297.827 1619 295.36C1624.43 294.373 1629.86 294.373 1635.28 295.36C1641.2 296.347 1646.63 298.813 1651.56 302.76C1659.95 310.16 1663.65 319.287 1662.66 330.14C1661.68 340.993 1659.46 350.12 1656 357.52C1653.54 361.467 1651.07 365.66 1648.6 370.1C1646.63 374.047 1644.16 378.24 1641.2 382.68C1636.76 390.08 1630.35 400.933 1621.96 415.24C1614.07 429.053 1606.18 443.853 1598.28 459.64C1590.88 475.427 1584.47 491.213 1579.04 507C1573.62 522.293 1571.4 534.873 1572.38 544.74C1572.88 548.193 1574.11 551.647 1576.08 555.1C1578.06 558.553 1582 558.8 1587.92 555.84C1593.84 552.88 1600.01 547.947 1606.42 541.04C1613.33 534.133 1619.74 527.227 1625.66 520.32C1632.57 511.933 1639.48 502.807 1646.38 492.94C1654.28 482.087 1661.68 470.987 1668.58 459.64C1675.49 448.293 1681.9 437.687 1687.82 427.82C1693.74 417.953 1698.92 409.32 1703.36 401.92C1708.3 394.027 1712.49 388.107 1715.94 384.16C1716.44 383.667 1717.18 383.42 1718.16 383.42C1720.63 383.42 1723.1 383.913 1725.56 384.9C1727.54 385.887 1728.28 387.86 1727.78 390.82C1727.29 391.807 1726.06 395.013 1724.08 400.44C1722.6 405.373 1719.89 411.787 1715.94 419.68C1706.08 440.893 1694.98 461.367 1682.64 481.1C1672.28 497.873 1659.95 514.893 1645.64 532.16C1631.83 548.933 1617.03 562.253 1601.24 572.12C1600.26 572.613 1597.54 573.847 1593.1 575.82C1589.16 577.793 1583.98 579.273 1577.56 580.26C1571.15 581.247 1564 581 1556.1 579.52C1548.7 578.04 1541.3 574.34 1533.9 568.42C1527.98 563.487 1524.04 556.333 1522.06 546.96C1520.09 537.587 1519.35 526.733 1519.84 514.4C1520.83 502.067 1522.8 489.24 1525.76 475.92C1529.22 462.107 1533.66 448.787 1539.08 435.96C1542.54 427.573 1546.73 418.2 1551.66 407.84C1556.6 397.48 1561.28 388.107 1565.72 379.72C1571.15 369.853 1576.58 359.987 1582 350.12C1577.07 352.093 1567.2 358.753 1552.4 370.1C1538.1 380.953 1522.56 395.507 1505.78 413.76C1489.01 431.52 1472.98 451.993 1457.68 475.18C1442.39 498.367 1431.78 522.787 1425.86 548.44ZM1694.48 63.74C1693 62.7533 1690.04 62.0133 1685.6 61.52C1681.66 61.0267 1675.49 63.74 1667.1 69.66C1659.21 75.58 1648.6 86.1867 1635.28 101.48C1622.46 116.773 1606.42 139.467 1587.18 169.56C1600.01 168.08 1611.36 165.12 1621.22 160.68C1631.58 156.24 1640.22 151.8 1647.12 147.36C1655.02 141.933 1661.92 136.26 1667.84 130.34C1678.7 118.007 1686.1 107.647 1690.04 99.26C1693.99 90.8733 1696.46 83.9666 1697.44 78.54C1698.43 72.62 1697.44 67.6866 1694.48 63.74ZM1751.63 572.12C1750.64 572.613 1747.93 573.847 1743.49 575.82C1739.54 577.793 1734.12 579.52 1727.21 581C1720.8 581.987 1713.64 581.74 1705.75 580.26C1698.35 578.78 1690.95 575.08 1683.55 569.16C1676.15 562.747 1671.96 552.387 1670.97 538.08C1669.49 523.773 1670.48 507.987 1673.93 490.72C1677.38 472.96 1682.32 455.2 1688.73 437.44C1695.14 419.187 1702.3 403.4 1710.19 390.08C1721.54 370.84 1731.4 355.547 1739.79 344.2C1748.18 332.36 1755.82 322.987 1762.73 316.08C1767.66 311.147 1772.6 307.2 1777.53 304.24C1781.48 301.773 1785.92 299.8 1790.85 298.32C1795.78 296.84 1800.72 297.087 1805.65 299.06C1811.08 301.527 1814.53 305.72 1816.01 311.64C1817.49 317.56 1817.24 324.467 1815.27 332.36C1813.79 339.76 1810.83 347.9 1806.39 356.78C1802.44 365.66 1797.51 374.54 1791.59 383.42C1787.15 390.82 1780.74 401.673 1772.35 415.98C1764.46 429.793 1756.56 444.593 1748.67 460.38C1741.27 476.167 1734.86 491.953 1729.43 507.74C1724 523.033 1721.78 535.613 1722.77 545.48C1723.26 548.933 1724.5 552.387 1726.47 555.84C1728.44 559.293 1732.39 559.293 1738.31 555.84C1741.76 554.36 1745.46 551.893 1749.41 548.44C1753.36 544.987 1757.3 541.287 1761.25 537.34C1765.69 532.9 1769.88 528.213 1773.83 523.28C1777.78 518.84 1781.48 514.153 1784.93 509.22C1788.88 504.287 1792.82 499.107 1796.77 493.68C1804.17 482.827 1811.32 471.727 1818.23 460.38C1825.14 449.033 1831.8 438.427 1838.21 428.56C1844.13 418.693 1849.31 410.06 1853.75 402.66C1858.68 394.767 1862.88 388.847 1866.33 384.9C1866.82 384.407 1867.32 384.16 1867.81 384.16H1869.29C1870.28 384.16 1871.26 384.16 1872.25 384.16C1873.24 384.16 1874.22 384.407 1875.21 384.9C1877.68 386.38 1878.66 388.6 1878.17 391.56C1877.18 394.52 1872.99 404.14 1865.59 420.42C1862.14 428.313 1857.94 437.193 1853.01 447.06C1848.08 456.927 1842.16 467.533 1835.25 478.88C1828.34 490.227 1820.94 501.327 1813.05 512.18C1805.65 523.033 1797.26 533.393 1787.89 543.26C1783.94 547.207 1780 550.907 1776.05 554.36C1772.6 557.32 1768.65 560.527 1764.21 563.98C1759.77 567.433 1755.58 570.147 1751.63 572.12ZM1933.67 126.64C1938.6 130.587 1942.06 135.027 1944.03 139.96C1946 143.907 1946.5 148.593 1945.51 154.02C1944.52 158.953 1940.82 164.133 1934.41 169.56C1926.02 176.467 1916.16 184.36 1904.81 193.24C1893.96 202.12 1883.6 211.247 1873.73 220.62C1864.36 229.993 1856.71 239.613 1850.79 249.48C1845.36 258.853 1843.64 267.733 1845.61 276.12C1846.1 278.093 1846.35 280.067 1846.35 282.04C1846.35 285.987 1844.13 288.207 1839.69 288.7C1834.26 289.687 1829.33 288.453 1824.89 285C1820.94 281.053 1818.23 277.107 1816.75 273.16C1814.28 266.253 1813.3 257.373 1813.79 246.52C1814.78 235.667 1817.24 224.32 1821.19 212.48C1825.14 200.64 1830.56 188.8 1837.47 176.96C1844.87 165.12 1853.5 154.513 1863.37 145.14C1871.76 137.74 1880.14 131.82 1888.53 127.38C1895.44 123.433 1902.84 120.967 1910.73 119.98C1919.12 118.993 1926.76 121.213 1933.67 126.64ZM1926.35 522.54C1939.17 509.22 1950.03 495.407 1958.91 481.1C1968.28 466.3 1975.68 452.98 1981.11 441.14C1987.52 427.327 1992.95 413.513 1997.39 399.7C2000.35 387.86 2001.58 377.253 2001.09 367.88C2000.59 358.013 1998.62 345.927 1995.17 331.62C1991.22 316.327 1991.47 303.747 1995.91 293.88C2000.84 283.52 2008.98 279.327 2020.33 281.3C2023.78 282.287 2026.49 284.26 2028.47 287.22C2030.93 289.687 2032.66 292.647 2033.65 296.1C2034.63 299.553 2035.13 303.253 2035.13 307.2C2035.13 310.653 2035.13 313.613 2035.13 316.08C2034.63 321.013 2034.88 325.947 2035.87 330.88C2036.85 334.827 2038.33 339.267 2040.31 344.2C2042.28 349.133 2045.49 353.327 2049.93 356.78C2054.37 360.727 2060.29 363.44 2067.69 364.92C2075.09 366.4 2082.24 367.387 2089.15 367.88C2097.53 368.373 2105.92 368.373 2114.31 367.88C2116.77 367.387 2118.99 367.387 2120.97 367.88C2122.94 367.88 2123.93 368.62 2123.93 370.1C2123.93 372.567 2122.69 375.527 2120.23 378.98C2118.25 382.433 2114.31 385.147 2108.39 387.12C2104.93 387.613 2101.48 388.107 2098.03 388.6C2095.07 389.093 2091.37 389.587 2086.93 390.08C2082.98 390.08 2078.79 389.833 2074.35 389.34C2065.96 388.353 2058.81 386.873 2052.89 384.9C2047.46 382.927 2043.02 380.707 2039.57 378.24C2035.62 375.773 2032.41 372.567 2029.95 368.62C2029.45 374.54 2028.22 380.953 2026.25 387.86C2024.77 393.78 2022.55 400.933 2019.59 409.32C2017.12 417.707 2013.91 426.587 2009.97 435.96C2008.98 437.44 2006.76 441.88 2003.31 449.28C2000.35 456.187 1995.91 464.82 1989.99 475.18C1984.07 485.047 1976.67 495.9 1967.79 507.74C1959.4 519.58 1949.78 531.42 1938.93 543.26C1930.54 552.633 1921.66 560.773 1912.29 567.68C1903.41 574.093 1894.03 578.533 1884.17 581C1878.25 582.48 1873.31 582.727 1869.37 581.74C1865.42 580.753 1861.47 579.273 1857.53 577.3C1846.67 571.873 1839.52 563.24 1836.07 551.4C1832.61 539.56 1830.64 528.46 1830.15 518.1C1829.65 512.673 1829.65 507.247 1830.15 501.82C1830.64 495.9 1831.38 490.72 1832.37 486.28C1833.35 480.853 1834.09 475.92 1834.59 471.48C1840.01 444.84 1847.66 419.187 1857.53 394.52C1867.89 369.853 1879.73 345.68 1893.05 322C1896.01 317.067 1899.46 311.64 1903.41 305.72C1907.85 299.8 1912.78 294.62 1918.21 290.18C1923.63 285.74 1929.31 282.533 1935.23 280.56C1941.64 278.587 1948.3 278.833 1955.21 281.3C1961.62 283.767 1965.57 287.96 1967.05 293.88C1968.53 299.307 1968.53 305.227 1967.05 311.64C1965.57 317.56 1963.1 323.727 1959.65 330.14C1956.69 336.06 1954.22 340.993 1952.25 344.94C1938.43 367.14 1925.85 390.08 1914.51 413.76C1903.65 436.947 1895.02 460.873 1888.61 485.54C1886.14 494.913 1884.17 504.04 1882.69 512.92C1881.7 520.813 1880.96 528.953 1880.47 537.34C1880.47 545.233 1881.7 552.633 1884.17 559.54C1889.1 556.58 1893.79 553.127 1898.23 549.18C1903.16 545.233 1907.6 541.533 1911.55 538.08C1915.49 534.133 1918.7 530.68 1921.17 527.72C1924.13 524.76 1925.85 523.033 1926.35 522.54ZM2235.38 390.08C2240.81 381.2 2246.24 372.32 2251.66 363.44C2256.6 356.04 2262.27 348.147 2268.68 339.76C2275.1 330.88 2281.76 322.74 2288.66 315.34C2293.1 310.407 2297.79 306.46 2302.72 303.5C2306.67 301.033 2311.11 299.06 2316.04 297.58C2320.98 296.1 2325.91 296.347 2330.84 298.32C2336.76 300.787 2340.22 304.98 2341.2 310.9C2342.68 316.82 2342.44 323.727 2340.46 331.62C2338.98 339.02 2336.02 347.16 2331.58 356.04C2327.64 364.92 2322.95 373.8 2317.52 382.68C2312.59 390.08 2305.93 400.933 2297.54 415.24C2289.65 429.053 2281.76 443.853 2273.86 459.64C2266.46 475.427 2260.05 491.213 2254.62 507C2249.69 522.293 2247.72 534.873 2248.7 544.74C2248.7 548.193 2249.69 551.647 2251.66 555.1C2253.64 558.553 2257.83 558.8 2264.24 555.84C2269.67 552.88 2275.84 547.947 2282.74 541.04C2289.65 534.133 2296.06 527.227 2301.98 520.32C2308.89 511.933 2315.8 502.807 2322.7 492.94C2330.1 482.087 2337.26 470.987 2344.16 459.64C2351.07 448.293 2357.48 437.687 2363.4 427.82C2369.32 417.953 2374.5 409.32 2378.94 401.92C2383.88 394.027 2388.07 388.107 2391.52 384.16C2392.02 383.667 2392.76 383.42 2393.74 383.42C2396.21 383.42 2398.68 383.913 2401.14 384.9C2403.12 385.393 2403.86 387.367 2403.36 390.82C2403.36 393.287 2399.42 402.907 2391.52 419.68C2381.66 440.893 2370.56 461.367 2358.22 481.1C2347.86 497.873 2335.78 514.893 2321.96 532.16C2308.15 548.933 2293.35 562.253 2277.56 572.12C2276.58 572.12 2274.36 573.107 2270.9 575.08C2267.94 576.56 2263.75 577.793 2258.32 578.78C2253.39 579.767 2247.72 580.507 2241.3 581C2235.38 581 2229.22 579.52 2222.8 576.56C2214.42 593.827 2204.55 611.833 2193.2 630.58C2181.86 649.82 2168.78 668.073 2153.98 685.34C2181.12 690.767 2208.99 696.193 2237.6 701.62C2262.27 706.06 2289.16 710.253 2318.26 714.2C2347.86 718.64 2376.48 722.093 2404.1 724.56C2426.3 726.533 2445.54 726.04 2461.82 723.08C2478.6 720.12 2492.66 716.667 2504 712.72C2516.83 707.787 2527.93 702.113 2537.3 695.7C2545.69 689.78 2554.82 682.627 2564.68 674.24C2575.04 666.347 2585.9 656.973 2597.24 646.12C2606.12 637.733 2614.02 632.8 2620.92 631.32C2627.83 629.84 2633.75 630.087 2638.68 632.06C2644.11 634.033 2649.04 637.98 2653.48 643.9C2655.95 648.34 2657.43 653.027 2657.92 657.96C2658.42 661.907 2657.43 666.593 2654.96 672.02C2652.99 677.447 2648.55 683.12 2641.64 689.04C2631.78 697.92 2619.94 706.06 2606.12 713.46C2594.28 719.873 2579.48 725.793 2561.72 731.22C2544.46 737.14 2524.23 741.333 2501.04 743.8C2477.36 745.773 2450.72 746.267 2421.12 745.28C2392.02 744.787 2359.95 742.567 2324.92 738.62C2304.2 736.153 2282.5 733.193 2259.8 729.74C2237.6 726.78 2217.13 723.82 2198.38 720.86C2176.18 717.407 2154.72 713.953 2134 710.5C2126.6 718.887 2118.71 727.273 2110.32 735.66C2102.43 744.047 2093.8 752.433 2084.42 760.82C2073.08 770.687 2060.25 780.307 2045.94 789.68C2033.61 798.067 2019.06 806.7 2002.28 815.58C1985.51 824.46 1966.76 832.107 1946.04 838.52C1930.75 843.453 1914.47 847.153 1897.2 849.62C1882.4 852.087 1865.38 853.32 1846.14 853.32C1826.41 853.32 1805.94 850.853 1784.72 845.92C1765.98 841.973 1751.42 836.3 1741.06 828.9C1730.7 821.5 1722.81 814.1 1717.38 806.7C1711.46 798.313 1707.76 789.433 1706.28 780.06C1705.3 768.22 1707.76 756.38 1713.68 744.54C1718.62 735.167 1727.99 725.053 1741.8 714.2C1755.62 703.347 1776.34 694.467 1803.96 687.56C1827.15 681.147 1854.04 676.46 1884.62 673.5C1910.77 671.033 1942.1 669.553 1978.6 669.06C2015.11 669.06 2056.55 672.267 2102.92 678.68C2116.74 659.933 2129.07 640.94 2139.92 621.7C2150.78 602.953 2160.15 584.947 2168.04 567.68C2175.94 550.413 2182.35 534.873 2187.28 521.06C2192.71 506.753 2196.9 495.16 2199.86 486.28C2192.46 498.12 2184.82 509.713 2176.92 521.06C2169.52 531.913 2161.88 541.78 2153.98 550.66C2146.58 559.54 2139.18 566.693 2131.78 572.12C2124.38 577.547 2117.48 580.507 2111.06 581C2105.14 581.987 2100.21 581.987 2096.26 581C2092.32 580.507 2088.37 579.273 2084.42 577.3C2073.57 571.873 2066.42 563.24 2062.96 551.4C2059.51 539.56 2057.54 528.46 2057.04 518.1C2056.55 512.673 2056.55 507.247 2057.04 501.82C2057.54 495.9 2058.28 490.72 2059.26 486.28C2060.25 480.853 2061.24 475.92 2062.22 471.48C2067.65 444.84 2075.3 419.187 2085.16 394.52C2095.52 369.853 2107.36 345.68 2120.68 322C2123.64 317.067 2127.1 311.64 2131.04 305.72C2135.48 299.8 2140.17 294.62 2145.1 290.18C2150.53 285.74 2156.2 282.533 2162.12 280.56C2168.54 278.587 2175.2 278.833 2182.1 281.3C2188.52 283.767 2192.46 287.96 2193.94 293.88C2195.42 299.307 2195.42 305.227 2193.94 311.64C2192.96 317.56 2190.74 323.727 2187.28 330.14C2184.32 336.06 2181.86 340.993 2179.88 344.94C2166.07 367.14 2153.49 390.08 2142.14 413.76C2131.29 436.947 2122.41 460.873 2115.5 485.54C2113.04 494.913 2111.06 504.04 2109.58 512.92C2108.6 520.813 2107.86 528.953 2107.36 537.34C2107.36 545.233 2108.6 552.633 2111.06 559.54C2112.05 559.047 2115.26 556.087 2120.68 550.66C2126.6 544.74 2134.74 535.367 2145.1 522.54C2155.46 509.713 2168.04 492.693 2182.84 471.48C2197.64 449.773 2215.16 422.64 2235.38 390.08ZM1841.7 828.16C1867.85 828.16 1892.52 824.707 1915.7 817.8C1938.4 811.387 1959.86 802.507 1980.08 791.16C1999.82 780.307 2018.07 767.48 2034.84 752.68C2051.62 738.373 2067.16 722.833 2081.46 706.06C2060.74 704.58 2038.3 703.593 2014.12 703.1C1989.46 702.607 1962.32 702.853 1932.72 703.84C1881.42 705.813 1842.2 710.5 1815.06 717.9C1787.44 725.3 1767.46 732.947 1755.12 740.84C1740.32 750.213 1732.18 760.82 1730.7 772.66C1730.21 775.62 1730.21 778.333 1730.7 780.8C1731.2 783.267 1731.69 785.733 1732.18 788.2C1732.68 791.16 1734.16 793.873 1736.62 796.34C1743.04 804.727 1752.16 810.893 1764 814.84C1775.84 819.28 1787.44 822.487 1798.78 824.46C1812.1 826.433 1826.41 827.667 1841.7 828.16ZM2496.89 529.2C2490.97 538.08 2483.82 546.713 2475.43 555.1C2468.53 562.007 2459.89 568.913 2449.53 575.82C2439.17 582.727 2427.09 587.66 2413.27 590.62C2400.94 593.58 2389.59 593.333 2379.23 589.88C2369.37 586.92 2361.47 580.507 2355.55 570.64C2349.14 560.773 2345.44 547.453 2344.45 530.68C2343.47 513.907 2346.18 493.433 2352.59 469.26C2357.53 450.513 2363.69 433.493 2371.09 418.2C2378.49 402.413 2385.65 389.093 2392.55 378.24C2400.94 365.413 2409.33 354.313 2417.71 344.94C2425.61 335.073 2434.73 325.947 2445.09 317.56C2453.48 310.653 2463.84 304.24 2476.17 298.32C2488.51 292.4 2501.83 288.947 2516.13 287.96C2529.95 286.973 2541.79 289.193 2551.65 294.62C2560.04 299.06 2567.19 306.953 2573.11 318.3C2579.03 329.153 2580.27 345.433 2576.81 367.14C2581.25 363.193 2585.69 360.727 2590.13 359.74C2595.07 358.26 2599.75 358.753 2604.19 361.22C2609.62 364.673 2613.07 369.36 2614.55 375.28C2616.53 381.2 2617.02 387.367 2616.03 393.78C2615.54 400.193 2614.06 406.607 2611.59 413.02C2609.62 418.94 2607.65 423.873 2605.67 427.82C2597.78 443.607 2589.39 460.627 2580.51 478.88C2571.63 497.133 2563.99 514.4 2557.57 530.68C2551.65 546.96 2547.71 561.513 2545.73 574.34C2544.25 586.673 2546.47 594.567 2552.39 598.02C2557.82 595.553 2563.49 591.607 2569.41 586.18C2575.33 580.753 2581.25 574.587 2587.17 567.68C2593.59 560.773 2599.75 553.373 2605.67 545.48C2611.59 537.587 2617.27 529.693 2622.69 521.8C2635.52 503.053 2648.1 482.827 2660.43 461.12C2670.3 444.347 2678.93 429.547 2686.33 416.72C2694.23 403.4 2700.64 393.287 2705.57 386.38C2706.56 385.393 2707.55 384.653 2708.53 384.16C2710.01 383.173 2712.48 383.42 2715.93 384.9C2717.91 385.887 2718.15 388.847 2716.67 393.78C2712.23 406.113 2706.56 419.927 2699.65 435.22C2693.73 448.047 2685.84 463.093 2675.97 480.36C2666.6 497.627 2655.01 516.373 2641.19 536.6C2632.81 548.933 2624.17 560.773 2615.29 572.12C2607.4 581.987 2598.27 591.607 2587.91 600.98C2578.05 610.353 2568.18 617.26 2558.31 621.7C2551.41 624.66 2545.49 626.387 2540.55 626.88C2535.62 627.373 2531.18 627.127 2527.23 626.14C2522.79 625.153 2519.09 623.427 2516.13 620.96C2511.2 617.507 2507.25 613.56 2504.29 609.12C2501.83 605.173 2499.85 601.227 2498.37 597.28C2496.4 592.84 2495.17 588.153 2494.67 583.22C2493.19 576.313 2492.7 568.173 2493.19 558.8C2493.69 549.427 2494.92 539.56 2496.89 529.2ZM2419.93 565.46C2422.89 563.98 2425.85 562.253 2428.81 560.28C2432.27 558.307 2435.23 556.333 2437.69 554.36C2440.65 552.387 2443.61 549.92 2446.57 546.96C2456.44 538.573 2465.81 529.2 2474.69 518.84C2483.57 507.987 2491.47 497.873 2498.37 488.5C2506.27 477.647 2513.67 466.793 2520.57 455.94C2523.53 448.54 2526.99 441.14 2530.93 433.74C2534.88 425.847 2538.83 418.693 2542.77 412.28C2547.21 404.88 2551.41 397.727 2555.35 390.82C2555.85 388.353 2556.34 384.407 2556.83 378.98C2557.33 373.553 2557.33 367.88 2556.83 361.96C2556.34 356.04 2555.11 350.613 2553.13 345.68C2551.65 340.747 2548.94 337.54 2544.99 336.06C2534.14 331.127 2520.57 335.567 2504.29 349.38C2488.51 362.7 2471.49 381.693 2453.23 406.36C2444.35 418.2 2435.72 432.26 2427.33 448.54C2419.44 464.327 2412.53 479.867 2406.61 495.16C2401.19 510.453 2396.99 524.267 2394.03 536.6C2391.57 548.933 2391.57 557.567 2394.03 562.5C2396.5 567.927 2400.2 570.393 2405.13 569.9C2410.56 569.407 2415.49 567.927 2419.93 565.46ZM2717.25 548.44C2717.25 550.413 2717.5 552.387 2717.99 554.36C2718.98 558.307 2719.47 561.02 2719.47 562.5C2719.47 566.447 2718.98 570.147 2717.99 573.6C2717 576.56 2714.29 578.533 2709.85 579.52C2707.38 580.507 2705.16 581 2703.19 581C2701.22 581 2699 581 2696.53 581C2694.06 580.507 2691.35 579.273 2688.39 577.3C2685.92 575.327 2683.46 573.353 2680.99 571.38C2678.52 568.913 2676.8 566.2 2675.81 563.24C2671.86 555.347 2669.4 546.22 2668.41 535.86C2667.42 525.5 2667.42 515.88 2668.41 507C2669.4 496.64 2670.88 486.033 2672.85 475.18C2676.3 459.887 2680.5 444.347 2685.43 428.56C2690.36 412.773 2695.3 397.727 2700.23 383.42C2705.66 368.62 2710.84 355.053 2715.77 342.72C2721.2 330.387 2725.88 319.78 2729.83 310.9C2745.12 274.887 2763.87 239.367 2786.07 204.34C2775.71 204.34 2765.35 204.093 2754.99 203.6C2746.11 203.6 2736.24 203.6 2725.39 203.6C2714.54 203.107 2704.42 202.613 2695.05 202.12C2674.33 201.627 2656.32 204.093 2641.03 209.52C2625.74 214.453 2612.17 220.62 2600.33 228.02C2588.49 235.42 2578.13 242.82 2569.25 250.22C2559.88 257.62 2551.49 263.293 2544.09 267.24C2534.22 272.667 2526.33 275.133 2520.41 274.64C2514.49 273.653 2509.56 271.68 2505.61 268.72C2501.17 265.267 2497.96 260.333 2495.99 253.92C2492.54 241.587 2494.51 231.227 2501.91 222.84C2509.31 214.453 2518.19 207.547 2528.55 202.12C2540.88 196.2 2555.19 191.267 2571.47 187.32C2579.86 185.84 2590.46 184.36 2603.29 182.88C2614.64 181.893 2629.19 181.4 2646.95 181.4C2664.22 180.907 2685.92 181.153 2712.07 182.14C2724.4 182.633 2735.75 182.88 2746.11 182.88C2756.96 182.387 2766.58 181.893 2774.97 181.4C2784.34 180.907 2792.98 180.413 2800.87 179.92C2814.19 160.187 2827.76 141.44 2841.57 123.68C2855.38 105.92 2868.95 90.1333 2882.27 76.32C2895.59 62.5066 2908.17 50.9133 2920.01 41.54C2931.85 32.1666 2942.7 25.7533 2952.57 22.3C2957.5 20.3266 2962.68 19.0933 2968.11 18.6C2972.55 18.1066 2977.24 18.3533 2982.17 19.34C2987.6 19.8333 2992.53 21.56 2996.97 24.52C3002.4 28.4666 3006.59 34.14 3009.55 41.54C3012.02 47.9533 3013.25 56.34 3013.25 66.7C3013.25 77.06 3010.29 89.8867 3004.37 105.18C2996.97 120.967 2986.86 135.273 2974.03 148.1C2962.68 159.447 2947.88 170.053 2929.63 179.92C2911.87 189.293 2889.18 195.213 2861.55 197.68C2854.64 209.52 2847.98 221.607 2841.57 233.94C2836.14 244.3 2829.98 255.4 2823.07 267.24C2816.66 279.08 2810.74 290.18 2805.31 300.54C2797.91 314.353 2790.76 328.907 2783.85 344.2C2777.44 357.52 2770.78 372.567 2763.87 389.34C2756.96 406.113 2750.06 423.133 2743.15 440.4C2747.59 433.987 2752.52 427.08 2757.95 419.68C2763.38 412.28 2769.05 405.127 2774.97 398.22C2784.34 386.873 2794.7 375.527 2806.05 364.18C2817.4 352.833 2828.99 342.473 2840.83 333.1C2852.67 323.727 2864.51 315.833 2876.35 309.42C2888.19 302.513 2899.78 297.827 2911.13 295.36C2916.06 294.373 2921.24 294.373 2926.67 295.36C2932.59 296.347 2938.26 298.813 2943.69 302.76C2950.6 309.173 2954.05 316.82 2954.05 325.7C2954.05 334.58 2952.82 342.72 2950.35 350.12C2948.87 354.56 2947.14 358.753 2945.17 362.7C2943.2 366.647 2940.98 370.593 2938.51 374.54C2936.04 377.993 2933.08 381.2 2929.63 384.16C2922.72 390.573 2915.32 395.507 2907.43 398.96C2900.03 402.413 2891.89 402.66 2883.01 399.7C2875.61 397.233 2870.92 393.287 2868.95 387.86C2866.98 381.94 2866.48 376.267 2867.47 370.84C2868.46 364.427 2870.68 357.52 2874.13 350.12C2871.17 351.107 2866.73 353.573 2860.81 357.52C2855.38 360.973 2848.72 366.153 2840.83 373.06C2839.84 375.527 2838.36 379.72 2836.39 385.64C2834.42 391.56 2832.2 398.713 2829.73 407.1C2827.76 414.993 2825.78 423.627 2823.81 433C2822.33 442.373 2821.59 451.747 2821.59 461.12C2821.59 468.52 2822.08 476.167 2823.07 484.06C2824.55 491.953 2827.02 499.353 2830.47 506.26C2833.92 512.673 2838.36 518.1 2843.79 522.54C2849.22 526.487 2856.37 528.46 2865.25 528.46C2871.66 528.46 2878.32 527.227 2885.23 524.76C2892.14 521.8 2898.8 518.1 2905.21 513.66C2912.12 508.727 2918.53 503.3 2924.45 497.38C2930.86 491.46 2936.78 485.293 2942.21 478.88C2955.04 464.08 2967.37 447.06 2979.21 427.82C2985.13 417.953 2990.31 409.32 2994.75 401.92C2999.68 394.027 3003.88 388.107 3007.33 384.16C3007.82 383.667 3008.56 383.42 3009.55 383.42C3012.02 383.42 3014.48 383.913 3016.95 384.9C3018.92 385.393 3019.66 387.367 3019.17 390.82C3019.17 393.287 3015.22 402.907 3007.33 419.68C3001.9 431.52 2995.74 443.853 2988.83 456.68C2982.91 467.533 2975.76 479.62 2967.37 492.94C2958.98 505.767 2949.86 518.1 2939.99 529.94C2932.59 539.313 2924.45 547.7 2915.57 555.1C2908.17 561.513 2899.54 567.433 2889.67 572.86C2879.8 577.793 2869.44 580.507 2858.59 581C2848.23 581.493 2839.6 580.507 2832.69 578.04C2825.78 575.08 2821.1 572.86 2818.63 571.38C2805.8 564.967 2795.69 556.58 2788.29 546.22C2780.89 535.86 2775.46 524.76 2772.01 512.92C2769.05 501.08 2767.57 489.24 2767.57 477.4C2767.57 465.56 2768.56 454.707 2770.53 444.84C2758.69 460.133 2747.84 476.66 2737.97 494.42C2728.6 511.687 2721.69 529.693 2717.25 548.44ZM2986.61 63.74C2985.13 62.7533 2982.17 62.0133 2977.73 61.52C2973.78 61.0267 2967.62 63.74 2959.23 69.66C2951.34 75.58 2940.73 86.1867 2927.41 101.48C2914.58 116.773 2898.55 139.467 2879.31 169.56C2892.14 168.08 2903.48 165.12 2913.35 160.68C2923.71 156.24 2932.34 151.8 2939.25 147.36C2947.14 141.933 2954.05 136.26 2959.97 130.34C2970.33 118.007 2977.48 107.647 2981.43 99.26C2985.38 90.8733 2987.84 83.9666 2988.83 78.54C2989.82 72.62 2989.08 67.6866 2986.61 63.74ZM3304.22 150.32C3269.19 149.333 3231.21 150.073 3190.26 152.54C3184.83 160.927 3179.41 169.313 3173.98 177.7C3169.05 185.593 3165.35 192.253 3162.88 197.68C3155.97 209.52 3149.31 221.607 3142.9 233.94C3137.47 244.3 3131.31 255.4 3124.4 267.24C3117.99 279.08 3112.07 290.18 3106.64 300.54C3089.87 332.607 3075.07 363.933 3062.24 394.52C3056.81 407.347 3051.39 420.667 3045.96 434.48C3041.03 448.293 3036.34 461.86 3031.9 475.18C3027.95 488.007 3024.75 500.587 3022.28 512.92C3020.31 524.76 3019.57 535.367 3020.06 544.74C3020.06 547.7 3021.05 550.907 3023.02 554.36C3024.99 557.813 3028.45 558.553 3033.38 556.58C3044.73 553.127 3056.57 545.48 3068.9 533.64C3081.73 521.8 3093.81 509.467 3105.16 496.64C3117.99 481.347 3130.81 464.573 3143.64 446.32C3151.04 436.453 3157.95 426.833 3164.36 417.46C3170.77 407.593 3176.69 398.96 3182.12 391.56C3183.11 389.587 3184.34 387.86 3185.82 386.38C3188.29 383.913 3190.51 382.927 3192.48 383.42C3194.95 384.407 3196.92 386.133 3198.4 388.6C3199.88 391.067 3199.39 394.767 3196.92 399.7C3192.97 407.593 3188.53 415.733 3183.6 424.12C3179.65 431.027 3175.21 438.92 3170.28 447.8C3165.35 456.187 3160.41 464.327 3155.48 472.22C3143.15 489.98 3130.07 506.26 3116.26 521.06C3104.42 533.887 3091.1 545.973 3076.3 557.32C3061.5 568.667 3046.45 575.82 3031.16 578.78C3024.25 580.26 3016.36 580.753 3007.48 580.26C2998.6 579.767 2989.72 575.82 2980.84 568.42C2975.41 563.487 2971.96 556.087 2970.48 546.22C2968.51 535.86 2968.01 525.5 2969 515.14C2969.49 502.807 2971.22 489.98 2974.18 476.66C2977.14 462.353 2980.84 448.293 2985.28 434.48C2989.23 420.173 2993.67 406.36 2998.6 393.04C3005.51 371.827 3013.4 350.367 3022.28 328.66C3031.65 306.953 3041.27 285.987 3051.14 265.76C3061.01 245.533 3070.87 226.54 3080.74 208.78C3091.1 190.527 3100.72 174 3109.6 159.2C3094.8 160.187 3080.74 161.667 3067.42 163.64C3055.58 165.12 3043.25 166.847 3030.42 168.82C3018.09 170.3 3006.99 171.533 2997.12 172.52C2988.24 174 2978.62 175.48 2968.26 176.96C2959.38 177.947 2949.27 179.18 2937.92 180.66C2926.57 182.14 2914.49 183.373 2901.66 184.36C2871.07 187.813 2844.93 188.8 2823.22 187.32C2801.02 185.347 2782.77 182.633 2768.46 179.18C2751.69 175.233 2737.87 170.547 2727.02 165.12C2719.13 160.68 2713.45 155.993 2710 151.06C2706.05 145.633 2703.34 140.7 2701.86 136.26C2700.38 131.327 2699.89 127.133 2700.38 123.68C2700.38 119.733 2700.63 117.02 2701.12 115.54C2702.11 111.593 2703.34 108.14 2704.82 105.18C2705.81 102.713 2707.29 100.493 2709.26 98.52C2711.23 96.0533 2713.45 94.5733 2715.92 94.08C2723.81 93.0933 2728.75 94.82 2730.72 99.26C2732.2 103.7 2732.69 109.867 2732.2 117.76C2732.2 126.147 2735.9 133.3 2743.3 139.22C2749.71 144.647 2759.83 149.58 2773.64 154.02C2787.45 158.46 2807.93 160.68 2835.06 160.68C2843.94 160.68 2854.3 160.187 2866.14 159.2C2876.01 158.213 2887.85 157.227 2901.66 156.24C2914.98 154.76 2930.03 152.787 2946.8 150.32C2974.92 146.373 3000.08 143.167 3022.28 140.7C3044.48 138.233 3063.47 136.013 3079.26 134.04C3097.51 132.067 3113.79 130.093 3128.1 128.12C3135.99 115.787 3141.91 106.907 3145.86 101.48C3155.73 86.1867 3164.36 74.1 3171.76 65.22C3179.16 55.8466 3186.07 47.9533 3192.48 41.54C3198.4 36.1133 3204.07 31.92 3209.5 28.96C3214.43 26.4933 3219.37 25.0133 3224.3 24.52C3229.73 23.5333 3234.91 25.0133 3239.84 28.96C3243.79 32.4133 3246.01 37.1 3246.5 43.02C3246.99 48.94 3246.01 55.6 3243.54 63C3241.57 69.9066 3238.36 77.5533 3233.92 85.94C3229.48 93.8333 3224.55 101.727 3219.12 109.62C3218.63 110.607 3217.89 111.84 3216.9 113.32C3215.91 114.307 3214.68 115.787 3213.2 117.76C3212.21 119.24 3211.23 120.967 3210.24 122.94C3221.59 122.447 3232.44 122.2 3242.8 122.2C3253.65 121.707 3264.26 121.707 3274.62 122.2C3291.89 122.2 3308.91 123.187 3325.68 125.16C3339.99 126.64 3355.28 129.107 3371.56 132.56C3388.33 135.52 3403.63 140.453 3417.44 147.36C3421.88 149.827 3426.57 152.54 3431.5 155.5C3435.45 157.967 3439.39 161.42 3443.34 165.86C3447.78 169.807 3451.73 174.493 3455.18 179.92C3456.17 182.88 3457.4 186.333 3458.88 190.28C3459.87 193.733 3460.61 197.68 3461.1 202.12C3462.09 206.56 3462.09 211.493 3461.1 216.92C3459.62 228.267 3456.91 235.913 3452.96 239.86C3449.01 243.807 3445.07 245.533 3441.12 245.04C3437.17 244.547 3435.45 242.82 3435.94 239.86C3436.93 236.407 3438.16 232.707 3439.64 228.76C3441.12 223.333 3441.86 218.647 3441.86 214.7C3442.35 210.753 3442.35 207.3 3441.86 204.34C3441.37 200.887 3440.87 197.927 3440.38 195.46C3437.91 190.527 3434.46 186.087 3430.02 182.14C3425.58 178.193 3420.89 174.987 3415.96 172.52C3410.53 169.56 3404.61 166.847 3398.2 164.38C3390.31 161.913 3381.67 159.693 3372.3 157.72C3363.91 156.24 3354.05 154.76 3342.7 153.28C3331.35 151.8 3318.53 150.813 3304.22 150.32ZM3222.96 572.12C3221.97 572.613 3219.26 573.847 3214.82 575.82C3210.87 577.793 3205.45 579.52 3198.54 581C3192.13 581.987 3184.97 581.74 3177.08 580.26C3169.68 578.78 3162.28 575.08 3154.88 569.16C3147.48 562.747 3143.29 552.387 3142.3 538.08C3140.82 523.773 3141.81 507.987 3145.26 490.72C3148.71 472.96 3153.65 455.2 3160.06 437.44C3166.47 419.187 3173.63 403.4 3181.52 390.08C3192.87 370.84 3202.73 355.547 3211.12 344.2C3219.51 332.36 3227.15 322.987 3234.06 316.08C3238.99 311.147 3243.93 307.2 3248.86 304.24C3252.81 301.773 3257.25 299.8 3262.18 298.32C3267.11 296.84 3272.05 297.087 3276.98 299.06C3282.41 301.527 3285.86 305.72 3287.34 311.64C3288.82 317.56 3288.57 324.467 3286.6 332.36C3285.12 339.76 3282.16 347.9 3277.72 356.78C3273.77 365.66 3268.84 374.54 3262.92 383.42C3258.48 390.82 3252.07 401.673 3243.68 415.98C3235.79 429.793 3227.89 444.593 3220 460.38C3212.6 476.167 3206.19 491.953 3200.76 507.74C3195.33 523.033 3193.11 535.613 3194.1 545.48C3194.59 548.933 3195.83 552.387 3197.8 555.84C3199.77 559.293 3203.72 559.293 3209.64 555.84C3213.09 554.36 3216.79 551.893 3220.74 548.44C3224.69 544.987 3228.63 541.287 3232.58 537.34C3237.02 532.9 3241.21 528.213 3245.16 523.28C3249.11 518.84 3252.81 514.153 3256.26 509.22C3260.21 504.287 3264.15 499.107 3268.1 493.68C3275.5 482.827 3282.65 471.727 3289.56 460.38C3296.47 449.033 3303.13 438.427 3309.54 428.56C3315.46 418.693 3320.64 410.06 3325.08 402.66C3330.01 394.767 3334.21 388.847 3337.66 384.9C3338.15 384.407 3338.65 384.16 3339.14 384.16H3340.62C3341.61 384.16 3342.59 384.16 3343.58 384.16C3344.57 384.16 3345.55 384.407 3346.54 384.9C3349.01 386.38 3349.99 388.6 3349.5 391.56C3348.51 394.52 3344.32 404.14 3336.92 420.42C3333.47 428.313 3329.27 437.193 3324.34 447.06C3319.41 456.927 3313.49 467.533 3306.58 478.88C3299.67 490.227 3292.27 501.327 3284.38 512.18C3276.98 523.033 3268.59 533.393 3259.22 543.26C3255.27 547.207 3251.33 550.907 3247.38 554.36C3243.93 557.32 3239.98 560.527 3235.54 563.98C3231.1 567.433 3226.91 570.147 3222.96 572.12ZM3405 126.64C3409.93 130.587 3413.39 135.027 3415.36 139.96C3417.33 143.907 3417.83 148.593 3416.84 154.02C3415.85 158.953 3412.15 164.133 3405.74 169.56C3397.35 176.467 3387.49 184.36 3376.14 193.24C3365.29 202.12 3354.93 211.247 3345.06 220.62C3335.69 229.993 3328.04 239.613 3322.12 249.48C3316.69 258.853 3314.97 267.733 3316.94 276.12C3317.43 278.093 3317.68 280.067 3317.68 282.04C3317.68 285.987 3315.46 288.207 3311.02 288.7C3305.59 289.687 3300.66 288.453 3296.22 285C3292.27 281.053 3289.56 277.107 3288.08 273.16C3285.61 266.253 3284.63 257.373 3285.12 246.52C3286.11 235.667 3288.57 224.32 3292.52 212.48C3296.47 200.64 3301.89 188.8 3308.8 176.96C3316.2 165.12 3324.83 154.513 3334.7 145.14C3343.09 137.74 3351.47 131.82 3359.86 127.38C3366.77 123.433 3374.17 120.967 3382.06 119.98C3390.45 118.993 3398.09 121.213 3405 126.64Z" fill="#DA9BF6"/>
</svg>
