<svg width="166" height="39" viewBox="0 0 166 33" fill="none" xmlns="http://www.w3.org/2000/svg">
<path d="M53.484 27.232C53.2227 27.1947 52.9707 27.176 52.728 27.176C52.504 27.176 52.2893 27.1853 52.084 27.204C51.86 27.2227 51.6453 27.2413 51.44 27.26C50.824 27.316 50.2173 27.4187 49.62 27.568C49.0413 27.7173 48.444 27.8667 47.828 28.016C47.212 28.184 46.568 28.3427 45.896 28.492C45.2427 28.66 44.5333 28.7813 43.768 28.856C42.032 29.024 40.6413 28.9587 39.596 28.66C39.2973 29.1267 38.9707 29.4813 38.616 29.724C38.28 29.9667 37.9533 30.144 37.636 30.256C37.2813 30.3867 36.9267 30.4613 36.572 30.48C35.732 30.5733 34.92 30.3493 34.136 29.808C33.352 29.2853 32.7267 28.464 32.26 27.344C31.812 26.224 31.5693 24.8147 31.532 23.116C31.5133 21.436 31.84 19.4947 32.512 17.292C30.216 17.4413 28.0693 17.4413 26.072 17.292C23.8693 18.8787 21.7787 20.1853 19.8 21.212C17.784 22.276 15.852 23.0693 14.004 23.592C13.4627 23.7413 12.9027 23.8627 12.324 23.956C11.8387 24.0493 11.2973 24.1333 10.7 24.208C10.1027 24.2827 9.524 24.3107 8.964 24.292C5.41733 24.2173 2.90667 23.2653 1.432 21.436C1.04 20.9693 0.750667 20.4933 0.564 20.008C0.377334 19.5227 0.256 19.084 0.2 18.692C0.144 18.2813 0.125333 17.9453 0.144 17.684C0.162667 17.404 0.172 17.236 0.172 17.18C0.228 16.7507 0.349334 16.256 0.536 15.696C0.741333 15.136 1.068 14.576 1.516 14.016C2.03867 13.3627 2.70133 12.8493 3.504 12.476C3.57867 12.4387 3.74667 12.364 4.008 12.252C4.288 12.14 4.652 12.0373 5.1 11.944C5.548 11.8507 6.07067 11.7853 6.668 11.748C7.284 11.7107 7.956 11.7573 8.684 11.888C8.70267 11.9067 8.74 11.916 8.796 11.916C9.39333 12.0093 10.056 12.1587 10.784 12.364C11.512 12.5507 12.3987 12.8307 13.444 13.204C13.4813 13.204 13.7427 13.2787 14.228 13.428C14.7133 13.5773 15.3667 13.764 16.188 13.988C17.0093 14.212 17.9707 14.4547 19.072 14.716C20.1733 14.9773 21.3587 15.22 22.628 15.444C23.1133 15.5373 23.5893 15.6213 24.056 15.696C24.5227 15.752 24.9893 15.8173 25.456 15.892C27.136 14.716 28.7413 13.5027 30.272 12.252C31.8213 11.0013 33.2493 9.79733 34.556 8.64C35.8627 7.48267 37.0107 6.428 38 5.476C38.9893 4.50533 39.7827 3.72133 40.38 3.124C41.0893 2.35867 41.7147 1.808 42.256 1.472C42.7973 1.11733 43.2547 0.874666 43.628 0.744C44.076 0.594666 44.4587 0.547999 44.776 0.603998C45.0747 0.697333 45.2613 0.865333 45.336 1.108C45.3733 1.22 45.392 1.332 45.392 1.444C43.7867 2.20933 42.144 3.86133 40.464 6.4C38.784 8.92 37.0947 12.168 35.396 16.144C36.6467 16.0133 37.8133 15.7707 38.896 15.416C39.0267 15.3787 39.148 15.3973 39.26 15.472C39.3907 15.528 39.4747 15.6213 39.512 15.752C39.6053 16.0507 39.5027 16.2467 39.204 16.34C38.5693 16.5453 37.9067 16.7133 37.216 16.844C36.5253 16.956 35.788 17.0587 35.004 17.152C34.2947 19.0187 33.8653 20.764 33.716 22.388C33.5667 23.9933 33.6133 25.3653 33.856 26.504C34.1173 27.6613 34.5373 28.5293 35.116 29.108C35.6947 29.6867 36.3667 29.8733 37.132 29.668C37.5613 29.5747 37.9253 29.416 38.224 29.192C38.5227 28.968 38.7747 28.7347 38.98 28.492C37.9907 28.1 37.412 27.5213 37.244 26.756C37.1507 26.364 37.1787 26.0093 37.328 25.692C37.496 25.3747 37.7107 25.132 37.972 24.964C38.252 24.796 38.5507 24.712 38.868 24.712C39.1853 24.7307 39.4747 24.8613 39.736 25.104C39.96 25.3093 40.1093 25.5333 40.184 25.776C40.2773 26.0187 40.324 26.252 40.324 26.476C40.324 26.7 40.296 26.896 40.24 27.064C40.2027 27.2507 40.1747 27.3813 40.156 27.456C41.4627 27.68 42.7413 27.7173 43.992 27.568C45.2427 27.4187 46.568 27.204 47.968 26.924C48.528 26.812 49.0413 26.7187 49.508 26.644C49.9933 26.588 50.4227 26.5413 50.796 26.504C50.9453 26.4853 51.1787 26.4573 51.496 26.42C51.832 26.4013 52.2147 26.3827 52.644 26.364C53.092 26.364 53.5773 26.3733 54.1 26.392C54.6227 26.4107 55.1547 26.4573 55.696 26.532C56.536 26.6253 57.264 26.784 57.88 27.008C58.5147 27.232 59.0467 27.456 59.476 27.68C59.9613 27.9413 60.3907 28.2307 60.764 28.548C61.0253 28.7907 61.184 29.0147 61.24 29.22C61.3147 29.444 61.352 29.6307 61.352 29.78C61.3333 29.9667 61.2867 30.1347 61.212 30.284C61.044 30.4893 60.8573 30.6293 60.652 30.704C60.4653 30.7787 60.2413 30.788 59.98 30.732C59.7187 30.6947 59.42 30.5173 59.084 30.2C58.244 29.3973 57.488 28.772 56.816 28.324C56.592 28.156 56.312 27.9973 55.976 27.848C55.696 27.7173 55.3507 27.596 54.94 27.484C54.5293 27.372 54.044 27.288 53.484 27.232ZM2.16 20.848C2.44 21.184 2.75733 21.4733 3.112 21.716C3.24267 21.8093 3.532 21.9773 3.98 22.22C4.44667 22.4627 5.016 22.6587 5.688 22.808C6.99467 23.1253 8.38533 23.1907 9.86 23.004C11.3347 22.8173 12.8373 22.4533 14.368 21.912C15.9173 21.3707 17.476 20.68 19.044 19.84C20.6307 19 22.1893 18.076 23.72 17.068C21.8533 16.8627 20.1267 16.5827 18.54 16.228C16.9533 15.8733 15.4973 15.5093 14.172 15.136C12.8467 14.744 11.6613 14.38 10.616 14.044C9.57067 13.708 8.66533 13.456 7.9 13.288C7.06 13.1013 6.32267 13.036 5.688 13.092C5.05333 13.148 4.50267 13.26 4.036 13.428C3.588 13.596 3.21467 13.792 2.916 14.016C2.636 14.24 2.42133 14.436 2.272 14.604C1.84267 15.1267 1.55333 15.64 1.404 16.144C1.25467 16.648 1.16133 17.0307 1.124 17.292V17.32C1.10533 17.432 1.096 17.544 1.096 17.656C1.096 17.7493 1.096 17.8707 1.096 18.02C1.096 18.1693 1.11467 18.328 1.152 18.496C1.264 19.392 1.6 20.176 2.16 20.848ZM27.64 16.144C28.5733 16.2373 29.4693 16.3027 30.328 16.34C31.1867 16.3587 32.0173 16.3587 32.82 16.34C33.0627 15.6307 33.3427 14.8933 33.66 14.128C33.9773 13.3627 34.3507 12.5693 34.78 11.748C35.0973 11.1133 35.4053 10.516 35.704 9.956C36.0213 9.396 36.3293 8.864 36.628 8.36C35.732 9.21867 34.7427 10.1333 33.66 11.104C32.596 12.0747 31.4573 13.064 30.244 14.072C29.8147 14.4453 29.376 14.8 28.928 15.136C28.4987 15.472 28.0693 15.808 27.64 16.144ZM38.896 27.12C39.0267 27.1947 39.176 27.2507 39.344 27.288C39.4187 27.3067 39.4933 27.3253 39.568 27.344C39.6053 27.1947 39.624 27.0547 39.624 26.924C39.6427 26.7933 39.652 26.6813 39.652 26.588C39.6333 26.476 39.6147 26.3733 39.596 26.28C39.5213 25.9627 39.4 25.7387 39.232 25.608C39.1573 25.5333 39.0733 25.4867 38.98 25.468C38.8493 25.4493 38.7187 25.4587 38.588 25.496C38.4573 25.5333 38.3453 25.5987 38.252 25.692C38.1587 25.7853 38.0933 25.8973 38.056 26.028C38.0187 26.1587 38.028 26.2893 38.084 26.42C38.1587 26.5693 38.2707 26.7 38.42 26.812C38.5693 26.9427 38.728 27.0453 38.896 27.12ZM41.666 22.248C42.0394 22.1173 42.3847 21.912 42.702 21.632C43.0194 21.3333 43.3087 21.0253 43.57 20.708C43.8687 20.3533 44.1487 19.9707 44.41 19.56C44.7274 19.0747 44.9794 18.5987 45.166 18.132C45.3527 17.6653 45.4927 17.2453 45.586 16.872C45.6794 16.4427 45.7447 16.0413 45.782 15.668C45.8194 15.1827 45.7914 14.7627 45.698 14.408C45.6047 14.0533 45.4554 13.624 45.25 13.12C45.0074 12.5787 44.9327 12.1027 45.026 11.692C45.138 11.2813 45.418 11.0853 45.866 11.104C45.9967 11.104 46.1087 11.1507 46.202 11.244C46.314 11.3187 46.398 11.4213 46.454 11.552C46.51 11.6827 46.5474 11.8133 46.566 11.944C46.6034 12.0747 46.6314 12.1867 46.65 12.28C46.65 12.4667 46.6874 12.6533 46.762 12.84C46.818 12.9893 46.8927 13.148 46.986 13.316C47.098 13.4653 47.2474 13.5867 47.434 13.68C47.602 13.8293 47.8074 13.9413 48.05 14.016C48.2554 14.0907 48.5167 14.128 48.834 14.128C49.17 14.128 49.562 14.0533 50.01 13.904C50.1407 13.848 50.2807 13.792 50.43 13.736C50.542 13.6987 50.6634 13.6613 50.794 13.624C50.9247 13.568 51.0367 13.5213 51.13 13.484C51.2794 13.4467 51.41 13.4187 51.522 13.4C51.634 13.3627 51.6994 13.3627 51.718 13.4C51.774 13.4933 51.7554 13.6053 51.662 13.736C51.606 13.8107 51.5127 13.904 51.382 14.016C51.27 14.1093 51.1114 14.2027 50.906 14.296C50.6447 14.352 50.3834 14.408 50.122 14.464C49.898 14.5013 49.646 14.548 49.366 14.604C49.086 14.6413 48.8154 14.6693 48.554 14.688C48.2367 14.7253 47.966 14.7253 47.742 14.688C47.5367 14.632 47.3594 14.576 47.21 14.52C47.042 14.4453 46.902 14.3613 46.79 14.268C46.8087 14.7533 46.7807 15.2573 46.706 15.78C46.65 16.228 46.5474 16.7413 46.398 17.32C46.2487 17.8987 46.0154 18.4867 45.698 19.084C45.362 19.7747 44.97 20.4093 44.522 20.988C44.1487 21.4733 43.6727 21.94 43.094 22.388C42.534 22.8173 41.89 23.0693 41.162 23.144C40.8447 23.1627 40.5834 23.1253 40.378 23.032C40.1727 22.9573 40.0514 22.9107 40.014 22.892C39.6594 22.724 39.3887 22.4813 39.202 22.164C38.9967 21.828 38.8474 21.4547 38.754 21.044C38.6607 20.6333 38.614 20.1947 38.614 19.728C38.614 19.2427 38.642 18.7667 38.698 18.3C38.8287 17.2173 39.09 16.032 39.482 14.744C39.7994 13.68 40.21 12.5973 40.714 11.496C41.2367 10.376 41.8247 9.29333 42.478 8.248C42.086 8.248 41.694 8.23867 41.302 8.22C40.966 8.22 40.5927 8.22 40.182 8.22C39.79 8.20133 39.4167 8.18267 39.062 8.164C38.278 8.14533 37.5967 8.23867 37.018 8.444C36.4207 8.63067 35.898 8.864 35.45 9.144C35.002 9.424 34.61 9.704 34.274 9.984C33.938 10.264 33.63 10.4787 33.35 10.628C32.9767 10.8333 32.678 10.9267 32.454 10.908C32.23 10.8707 32.0434 10.796 31.894 10.684C31.726 10.5533 31.6047 10.3667 31.53 10.124C31.3807 9.65733 31.446 9.26533 31.726 8.948C32.006 8.63067 32.342 8.36933 32.734 8.164C33.2007 7.94 33.742 7.75333 34.358 7.604C34.6754 7.548 35.0767 7.492 35.562 7.436C35.9914 7.39867 36.542 7.38 37.214 7.38C37.8674 7.36133 38.6887 7.37067 39.678 7.408C40.1447 7.42667 40.5834 7.436 40.994 7.436C41.4047 7.41733 41.7687 7.39867 42.086 7.38C42.4407 7.36133 42.7674 7.34267 43.066 7.324C43.57 6.57733 44.0834 5.868 44.606 5.196C45.1287 4.524 45.642 3.92667 46.146 3.404C46.65 2.88133 47.126 2.44267 47.574 2.088C48.022 1.73333 48.4327 1.49067 48.806 1.36C48.9927 1.28533 49.1887 1.23867 49.394 1.22C49.562 1.20133 49.7394 1.21067 49.926 1.248C50.1314 1.26667 50.318 1.332 50.486 1.444C50.6914 1.59333 50.85 1.808 50.962 2.088C51.0554 2.33067 51.102 2.648 51.102 3.04C51.102 3.432 50.9807 3.91733 50.738 4.496C50.458 5.09333 50.0754 5.63467 49.59 6.12C49.1607 6.54933 48.6007 6.95067 47.91 7.324C47.238 7.67867 46.3887 7.90267 45.362 7.996C45.1007 8.444 44.8114 8.93867 44.494 9.48C44.1954 10.0027 43.8874 10.5813 43.57 11.216C42.7674 12.896 42.1047 14.4547 41.582 15.892C41.358 16.508 41.1527 17.1333 40.966 17.768C40.7794 18.384 40.63 18.972 40.518 19.532C40.4247 20.092 40.3874 20.596 40.406 21.044C40.4247 21.492 40.5274 21.8373 40.714 22.08C40.77 22.136 40.8447 22.192 40.938 22.248C41.0127 22.2853 41.106 22.3133 41.218 22.332C41.3487 22.3507 41.498 22.3227 41.666 22.248ZM46.006 6.932C46.4914 6.876 46.9207 6.764 47.294 6.596C47.686 6.428 48.0127 6.26 48.274 6.092C48.5727 5.88667 48.834 5.672 49.058 5.448C49.4687 4.98133 49.7487 4.58933 49.898 4.272C50.0474 3.95467 50.1407 3.69333 50.178 3.488C50.2154 3.264 50.178 3.07733 50.066 2.928C50.01 2.89067 49.898 2.86267 49.73 2.844C49.5807 2.82533 49.3474 2.928 49.03 3.152C48.7314 3.376 48.33 3.77733 47.826 4.356C47.3407 4.93467 46.734 5.79333 46.006 6.932ZM50.843 21.268C50.843 21.3613 50.8524 21.4453 50.871 21.52C50.871 21.5947 50.871 21.66 50.871 21.716C50.8897 21.772 50.899 21.8187 50.899 21.856C50.9177 21.9867 50.899 22.108 50.843 22.22C50.8057 22.332 50.7124 22.4067 50.563 22.444C50.4697 22.4813 50.3857 22.5 50.311 22.5C50.2364 22.5 50.143 22.5 50.031 22.5C49.9377 22.4813 49.8444 22.4347 49.751 22.36C49.527 22.2107 49.359 22.0333 49.247 21.828C49.0977 21.5293 49.0137 21.184 48.995 20.792C48.9577 20.4 48.9577 20.036 48.995 19.7C49.0324 19.308 49.0884 18.9067 49.163 18.496C49.2937 17.9173 49.4524 17.3293 49.639 16.732C49.8257 16.1347 50.0124 15.5653 50.199 15.024C50.4044 14.464 50.6004 13.9507 50.787 13.484C50.9924 13.0173 51.1697 12.616 51.319 12.28C51.6177 11.5893 51.9444 10.908 52.299 10.236C52.6537 9.564 53.027 8.90133 53.419 8.248C53.027 8.248 52.635 8.23867 52.243 8.22C51.907 8.22 51.5337 8.22 51.123 8.22C50.731 8.20133 50.3577 8.18267 50.003 8.164C49.219 8.14533 48.5377 8.23867 47.959 8.444C47.3617 8.63067 46.839 8.864 46.391 9.144C45.943 9.424 45.551 9.704 45.215 9.984C44.879 10.264 44.571 10.4787 44.291 10.628C43.9177 10.8333 43.619 10.9267 43.395 10.908C43.171 10.8707 42.9844 10.796 42.835 10.684C42.667 10.5533 42.5457 10.3667 42.471 10.124C42.3217 9.65733 42.387 9.26533 42.667 8.948C42.947 8.63067 43.283 8.36933 43.675 8.164C44.1417 7.94 44.683 7.75333 45.299 7.604C45.6164 7.548 46.0177 7.492 46.503 7.436C46.9324 7.39867 47.483 7.38 48.155 7.38C48.8084 7.36133 49.6297 7.37067 50.619 7.408C51.1044 7.42667 51.543 7.436 51.935 7.436C52.3457 7.41733 52.7097 7.39867 53.027 7.38C53.3817 7.36133 53.7084 7.34267 54.007 7.324C54.511 6.57733 55.0244 5.868 55.547 5.196C56.0697 4.524 56.583 3.92667 57.087 3.404C57.591 2.88133 58.067 2.44267 58.515 2.088C58.963 1.73333 59.3737 1.49067 59.747 1.36C59.9337 1.28533 60.1297 1.23867 60.335 1.22C60.503 1.20133 60.6804 1.21067 60.867 1.248C61.0724 1.26667 61.259 1.332 61.427 1.444C61.6324 1.59333 61.791 1.808 61.903 2.088C61.9964 2.33067 62.043 2.648 62.043 3.04C62.043 3.432 61.9217 3.91733 61.679 4.496C61.399 5.09333 61.0164 5.63467 60.531 6.12C60.1017 6.54933 59.5417 6.95067 58.851 7.324C58.179 7.67867 57.3297 7.90267 56.303 7.996C56.0417 8.444 55.7897 8.90133 55.547 9.368C55.3417 9.76 55.1084 10.18 54.847 10.628C54.6044 11.076 54.3804 11.496 54.175 11.888C53.9137 12.4107 53.643 12.9613 53.363 13.54C53.1204 14.044 52.859 14.6133 52.579 15.248C52.3177 15.8827 52.0657 16.5267 51.823 17.18C51.991 16.9373 52.1684 16.676 52.355 16.396C52.5604 16.116 52.7844 15.8453 53.027 15.584C53.3817 15.1547 53.7644 14.7253 54.175 14.296C54.6044 13.8667 55.043 13.4747 55.491 13.12C55.939 12.7653 56.387 12.4667 56.835 12.224C57.283 11.9627 57.7217 11.7853 58.151 11.692C58.3564 11.6547 58.5617 11.6547 58.767 11.692C58.991 11.7293 59.1964 11.8227 59.383 11.972C59.7004 12.252 59.8404 12.5973 59.803 13.008C59.7657 13.4187 59.6817 13.764 59.551 14.044C59.4577 14.1933 59.3644 14.352 59.271 14.52C59.1964 14.6693 59.103 14.828 58.991 14.996C58.823 15.276 58.5804 15.6867 58.263 16.228C57.9644 16.7507 57.6657 17.3107 57.367 17.908C57.087 18.5053 56.8444 19.1027 56.639 19.7C56.4337 20.2787 56.3497 20.7547 56.387 21.128C56.4057 21.2587 56.4524 21.3893 56.527 21.52C56.6017 21.6507 56.751 21.66 56.975 21.548C57.199 21.436 57.4324 21.2493 57.675 20.988C57.9364 20.7267 58.179 20.4653 58.403 20.204C58.6644 19.8867 58.9257 19.5413 59.187 19.168C59.4857 18.7573 59.7657 18.3373 60.027 17.908C60.2884 17.4787 60.531 17.0773 60.755 16.704C60.979 16.3307 61.175 16.004 61.343 15.724C61.5297 15.4253 61.6884 15.2013 61.819 15.052C61.8377 15.0333 61.8657 15.024 61.903 15.024C61.9964 15.024 62.0897 15.0427 62.183 15.08C62.2577 15.1173 62.2857 15.192 62.267 15.304C62.2484 15.3413 62.2017 15.4627 62.127 15.668C62.071 15.8547 61.9684 16.0973 61.819 16.396C61.4457 17.1987 61.0257 17.9733 60.559 18.72C60.167 19.3547 59.7004 19.9987 59.159 20.652C58.6364 21.2867 58.0764 21.7907 57.479 22.164C57.4417 22.1827 57.339 22.2293 57.171 22.304C57.0217 22.3787 56.8257 22.4347 56.583 22.472C56.3404 22.5093 56.0697 22.5 55.771 22.444C55.491 22.388 55.211 22.248 54.931 22.024C54.707 21.8373 54.5577 21.5667 54.483 21.212C54.4084 20.8573 54.3804 20.4467 54.399 19.98C54.4364 19.5133 54.511 19.028 54.623 18.524C54.7537 18.0013 54.9217 17.4973 55.127 17.012C55.2577 16.6947 55.4164 16.34 55.603 15.948C55.7897 15.556 55.967 15.2013 56.135 14.884C56.3404 14.5107 56.5457 14.1373 56.751 13.764C56.5644 13.8387 56.191 14.0907 55.631 14.52C55.0897 14.9307 54.5017 15.4813 53.867 16.172C53.2324 16.844 52.6257 17.6187 52.047 18.496C51.4684 19.3733 51.067 20.2973 50.843 21.268ZM61.007 2.928C60.951 2.89067 60.839 2.86267 60.671 2.844C60.5217 2.82533 60.2884 2.928 59.971 3.152C59.6724 3.376 59.271 3.77733 58.767 4.356C58.2817 4.93467 57.675 5.79333 56.947 6.932C57.4324 6.876 57.8617 6.764 58.235 6.596C58.627 6.428 58.9537 6.26 59.215 6.092C59.5137 5.88667 59.775 5.672 59.999 5.448C60.4097 4.98133 60.6897 4.58933 60.839 4.272C60.9884 3.95467 61.0817 3.69333 61.119 3.488C61.1564 3.264 61.119 3.07733 61.007 2.928ZM64.2894 22.164C64.252 22.1827 64.1494 22.2293 63.9814 22.304C63.832 22.3787 63.6267 22.444 63.3654 22.5C63.1227 22.5373 62.852 22.528 62.5534 22.472C62.2734 22.416 61.9934 22.276 61.7134 22.052C61.4334 21.8093 61.2747 21.4173 61.2374 20.876C61.1814 20.3347 61.2187 19.7373 61.3494 19.084C61.48 18.412 61.6667 17.74 61.9094 17.068C62.152 16.3773 62.4227 15.78 62.7214 15.276C63.1507 14.548 63.524 13.9693 63.8414 13.54C64.1587 13.092 64.448 12.7373 64.7094 12.476C64.896 12.2893 65.0827 12.14 65.2694 12.028C65.4187 11.9347 65.5867 11.86 65.7734 11.804C65.96 11.748 66.1467 11.7573 66.3334 11.832C66.5387 11.9253 66.6694 12.084 66.7254 12.308C66.7814 12.532 66.772 12.7933 66.6974 13.092C66.6414 13.372 66.5294 13.68 66.3614 14.016C66.212 14.352 66.0254 14.688 65.8014 15.024C65.6334 15.304 65.3907 15.7147 65.0734 16.256C64.7747 16.7787 64.476 17.3387 64.1774 17.936C63.8974 18.5333 63.6547 19.1307 63.4494 19.728C63.244 20.3067 63.16 20.7827 63.1974 21.156C63.216 21.2867 63.2627 21.4173 63.3374 21.548C63.412 21.6787 63.5614 21.6787 63.7854 21.548C63.916 21.492 64.056 21.3987 64.2054 21.268C64.3547 21.1373 64.504 20.9973 64.6534 20.848C64.8214 20.68 64.98 20.5027 65.1294 20.316C65.2787 20.148 65.4187 19.9707 65.5494 19.784C65.6987 19.5973 65.848 19.4013 65.9974 19.196C66.2774 18.7853 66.548 18.3653 66.8094 17.936C67.0707 17.5067 67.3227 17.1053 67.5654 16.732C67.7894 16.3587 67.9854 16.032 68.1534 15.752C68.34 15.4533 68.4987 15.2293 68.6294 15.08C68.648 15.0613 68.6667 15.052 68.6854 15.052H68.7414C68.7787 15.052 68.816 15.052 68.8534 15.052C68.8907 15.052 68.928 15.0613 68.9654 15.08C69.0587 15.136 69.096 15.22 69.0774 15.332C69.04 15.444 68.8814 15.808 68.6014 16.424C68.4707 16.7227 68.312 17.0587 68.1254 17.432C67.9387 17.8053 67.7147 18.2067 67.4534 18.636C67.192 19.0653 66.912 19.4853 66.6134 19.896C66.3334 20.3067 66.016 20.6987 65.6614 21.072C65.512 21.2213 65.3627 21.3613 65.2134 21.492C65.0827 21.604 64.9334 21.7253 64.7654 21.856C64.5974 21.9867 64.4387 22.0893 64.2894 22.164ZM71.1774 5.308C71.364 5.45733 71.4947 5.62533 71.5694 5.812C71.644 5.96133 71.6627 6.13867 71.6254 6.344C71.588 6.53067 71.448 6.72667 71.2054 6.932C70.888 7.19333 70.5147 7.492 70.0854 7.828C69.6747 8.164 69.2827 8.50933 68.9094 8.864C68.5547 9.21867 68.2654 9.58267 68.0414 9.956C67.836 10.3107 67.7707 10.6467 67.8454 10.964C67.864 11.0387 67.8734 11.1133 67.8734 11.188C67.8734 11.3373 67.7894 11.4213 67.6214 11.44C67.416 11.4773 67.2294 11.4307 67.0614 11.3C66.912 11.1507 66.8094 11.0013 66.7534 10.852C66.66 10.5907 66.6227 10.2547 66.6414 9.844C66.6787 9.43333 66.772 9.004 66.9214 8.556C67.0707 8.108 67.276 7.66 67.5374 7.212C67.8174 6.764 68.144 6.36267 68.5174 6.008C68.8347 5.728 69.152 5.504 69.4694 5.336C69.7307 5.18667 70.0107 5.09333 70.3094 5.056C70.6267 5.01867 70.916 5.10267 71.1774 5.308ZM72.0202 20.288C72.5056 19.784 72.9162 19.2613 73.2522 18.72C73.6069 18.16 73.8869 17.656 74.0922 17.208C74.3349 16.6853 74.5402 16.1627 74.7082 15.64C74.8202 15.192 74.8669 14.7907 74.8482 14.436C74.8296 14.0627 74.7549 13.6053 74.6242 13.064C74.4749 12.4853 74.4842 12.0093 74.6522 11.636C74.8389 11.244 75.1469 11.0853 75.5762 11.16C75.7069 11.1973 75.8096 11.272 75.8842 11.384C75.9776 11.4773 76.0429 11.5893 76.0802 11.72C76.1176 11.8507 76.1362 11.9907 76.1362 12.14C76.1362 12.2707 76.1362 12.3827 76.1362 12.476C76.1176 12.6627 76.1269 12.8493 76.1642 13.036C76.2016 13.1853 76.2576 13.3533 76.3322 13.54C76.4069 13.7267 76.5282 13.8853 76.6962 14.016C76.8642 14.1653 77.0882 14.268 77.3682 14.324C77.6482 14.38 77.9189 14.4173 78.1802 14.436C78.4976 14.4547 78.8149 14.4547 79.1322 14.436C79.2256 14.4173 79.3096 14.4173 79.3842 14.436C79.4589 14.436 79.4962 14.464 79.4962 14.52C79.4962 14.6133 79.4496 14.7253 79.3562 14.856C79.2816 14.9867 79.1322 15.0893 78.9082 15.164C78.7776 15.1827 78.6469 15.2013 78.5162 15.22C78.4042 15.2387 78.2642 15.2573 78.0962 15.276C77.9469 15.276 77.7882 15.2667 77.6202 15.248C77.3029 15.2107 77.0322 15.1547 76.8082 15.08C76.6029 15.0053 76.4349 14.9213 76.3042 14.828C76.1549 14.7347 76.0336 14.6133 75.9402 14.464C75.9216 14.688 75.8749 14.9307 75.8002 15.192C75.7442 15.416 75.6602 15.6867 75.5482 16.004C75.4549 16.3213 75.3336 16.6573 75.1842 17.012C75.1469 17.068 75.0629 17.236 74.9322 17.516C74.8202 17.7773 74.6522 18.104 74.4282 18.496C74.2042 18.8693 73.9242 19.28 73.5882 19.728C73.2709 20.176 72.9069 20.624 72.4962 21.072C72.1789 21.4267 71.8429 21.7347 71.4882 21.996C71.1522 22.2387 70.7976 22.4067 70.4242 22.5C70.2002 22.556 70.0136 22.5653 69.8642 22.528C69.7149 22.4907 69.5656 22.4347 69.4162 22.36C69.0056 22.1547 68.7349 21.828 68.6042 21.38C68.4736 20.932 68.3989 20.512 68.3802 20.12C68.3616 19.9147 68.3616 19.7093 68.3802 19.504C68.3989 19.28 68.4269 19.084 68.4642 18.916C68.5016 18.7107 68.5296 18.524 68.5482 18.356C68.7536 17.348 69.0429 16.3773 69.4162 15.444C69.8082 14.5107 70.2562 13.596 70.7602 12.7C70.8722 12.5133 71.0029 12.308 71.1522 12.084C71.3202 11.86 71.5069 11.664 71.7122 11.496C71.9176 11.328 72.1322 11.2067 72.3562 11.132C72.5989 11.0573 72.8509 11.0667 73.1122 11.16C73.3549 11.2533 73.5042 11.412 73.5602 11.636C73.6162 11.8413 73.6162 12.0653 73.5602 12.308C73.5042 12.532 73.4109 12.7653 73.2802 13.008C73.1682 13.232 73.0749 13.4187 73.0002 13.568C72.4776 14.408 72.0016 15.276 71.5722 16.172C71.1616 17.0493 70.8349 17.9547 70.5922 18.888C70.4989 19.2427 70.4242 19.588 70.3682 19.924C70.3309 20.2227 70.3029 20.5307 70.2842 20.848C70.2842 21.1467 70.3309 21.4267 70.4242 21.688C70.6109 21.576 70.7882 21.4453 70.9562 21.296C71.1429 21.1467 71.3109 21.0067 71.4602 20.876C71.6096 20.7267 71.7309 20.596 71.8242 20.484C71.9362 20.372 72.0016 20.3067 72.0202 20.288ZM84.8335 15.276C85.0388 14.94 85.2442 14.604 85.4495 14.268C85.6362 13.988 85.8508 13.6893 86.0935 13.372C86.3362 13.036 86.5882 12.728 86.8495 12.448C87.0175 12.2613 87.1948 12.112 87.3815 12C87.5308 11.9067 87.6988 11.832 87.8855 11.776C88.0722 11.72 88.2588 11.7293 88.4455 11.804C88.6695 11.8973 88.8002 12.056 88.8375 12.28C88.8935 12.504 88.8842 12.7653 88.8095 13.064C88.7535 13.344 88.6415 13.652 88.4735 13.988C88.3242 14.324 88.1468 14.66 87.9415 14.996C87.7548 15.276 87.5028 15.6867 87.1855 16.228C86.8868 16.7507 86.5882 17.3107 86.2895 17.908C86.0095 18.5053 85.7668 19.1027 85.5615 19.7C85.3748 20.2787 85.3002 20.7547 85.3375 21.128C85.3375 21.2587 85.3748 21.3893 85.4495 21.52C85.5242 21.6507 85.6828 21.66 85.9255 21.548C86.1308 21.436 86.3642 21.2493 86.6255 20.988C86.8868 20.7267 87.1295 20.4653 87.3535 20.204C87.6148 19.8867 87.8762 19.5413 88.1375 19.168C88.4175 18.7573 88.6882 18.3373 88.9495 17.908C89.2108 17.4787 89.4535 17.0773 89.6775 16.704C89.9015 16.3307 90.0975 16.004 90.2655 15.724C90.4522 15.4253 90.6108 15.2013 90.7415 15.052C90.7602 15.0333 90.7882 15.024 90.8255 15.024C90.9188 15.024 91.0122 15.0427 91.1055 15.08C91.1802 15.0987 91.2082 15.1733 91.1895 15.304C91.1895 15.3973 91.0402 15.7613 90.7415 16.396C90.3682 17.1987 89.9482 17.9733 89.4815 18.72C89.0895 19.3547 88.6322 19.9987 88.1095 20.652C87.5868 21.2867 87.0268 21.7907 86.4295 22.164C86.3922 22.164 86.3082 22.2013 86.1775 22.276C86.0655 22.332 85.9068 22.3787 85.7015 22.416C85.5148 22.4533 85.3002 22.4813 85.0575 22.5C84.8335 22.5 84.6002 22.444 84.3575 22.332C84.0402 22.9853 83.6668 23.6667 83.2375 24.376C82.8082 25.104 82.3135 25.7947 81.7535 26.448C82.7802 26.6533 83.8348 26.8587 84.9175 27.064C85.8508 27.232 86.8682 27.3907 87.9695 27.54C89.0895 27.708 90.1722 27.8387 91.2175 27.932C92.0575 28.0067 92.7855 27.988 93.4015 27.876C94.0362 27.764 94.5682 27.6333 94.9975 27.484C95.4828 27.2973 95.9028 27.0827 96.2575 26.84C96.5748 26.616 96.9202 26.3453 97.2935 26.028C97.6855 25.7293 98.0962 25.3747 98.5255 24.964C98.8615 24.6467 99.1602 24.46 99.4215 24.404C99.6828 24.348 99.9068 24.3573 100.093 24.432C100.299 24.5067 100.485 24.656 100.653 24.88C100.747 25.048 100.803 25.2253 100.822 25.412C100.84 25.5613 100.803 25.7387 100.709 25.944C100.635 26.1493 100.467 26.364 100.205 26.588C99.8322 26.924 99.3842 27.232 98.8615 27.512C98.4135 27.7547 97.8535 27.9787 97.1815 28.184C96.5282 28.408 95.7628 28.5667 94.8855 28.66C93.9895 28.7347 92.9815 28.7533 91.8615 28.716C90.7602 28.6973 89.5468 28.6133 88.2215 28.464C87.4375 28.3707 86.6162 28.2587 85.7575 28.128C84.9175 28.016 84.1428 27.904 83.4335 27.792C82.5935 27.6613 81.7815 27.5307 80.9975 27.4C80.7175 27.7173 80.4188 28.0347 80.1015 28.352C79.8028 28.6693 79.4762 28.9867 79.1215 29.304C78.6922 29.6773 78.2068 30.0413 77.6655 30.396C77.1988 30.7133 76.6482 31.04 76.0135 31.376C75.3788 31.712 74.6695 32.0013 73.8855 32.244C73.3068 32.4307 72.6908 32.5707 72.0375 32.664C71.4775 32.7573 70.8335 32.804 70.1055 32.804C69.3588 32.804 68.5842 32.7107 67.7815 32.524C67.0722 32.3747 66.5215 32.16 66.1295 31.88C65.7375 31.6 65.4388 31.32 65.2335 31.04C65.0095 30.7227 64.8695 30.3867 64.8135 30.032C64.7762 29.584 64.8695 29.136 65.0935 28.688C65.2802 28.3333 65.6348 27.9507 66.1575 27.54C66.6802 27.1293 67.4642 26.7933 68.5095 26.532C69.3868 26.2893 70.4042 26.112 71.5615 26C72.5508 25.9067 73.7362 25.8507 75.1175 25.832C76.4988 25.832 78.0668 25.9533 79.8215 26.196C80.3442 25.4867 80.8108 24.768 81.2215 24.04C81.6322 23.3307 81.9868 22.6493 82.2855 21.996C82.5842 21.3427 82.8268 20.7547 83.0135 20.232C83.2188 19.6907 83.3775 19.252 83.4895 18.916C83.2095 19.364 82.9202 19.8027 82.6215 20.232C82.3415 20.6427 82.0522 21.016 81.7535 21.352C81.4735 21.688 81.1935 21.9587 80.9135 22.164C80.6335 22.3693 80.3722 22.4813 80.1295 22.5C79.9055 22.5373 79.7188 22.5373 79.5695 22.5C79.4202 22.4813 79.2708 22.4347 79.1215 22.36C78.7108 22.1547 78.4402 21.828 78.3095 21.38C78.1788 20.932 78.1042 20.512 78.0855 20.12C78.0668 19.9147 78.0668 19.7093 78.0855 19.504C78.1042 19.28 78.1322 19.084 78.1695 18.916C78.2068 18.7107 78.2442 18.524 78.2815 18.356C78.4868 17.348 78.7762 16.3773 79.1495 15.444C79.5415 14.5107 79.9895 13.596 80.4935 12.7C80.6055 12.5133 80.7362 12.308 80.8855 12.084C81.0535 11.86 81.2308 11.664 81.4175 11.496C81.6228 11.328 81.8375 11.2067 82.0615 11.132C82.3042 11.0573 82.5562 11.0667 82.8175 11.16C83.0602 11.2533 83.2095 11.412 83.2655 11.636C83.3215 11.8413 83.3215 12.0653 83.2655 12.308C83.2282 12.532 83.1442 12.7653 83.0135 13.008C82.9015 13.232 82.8082 13.4187 82.7335 13.568C82.2108 14.408 81.7348 15.276 81.3055 16.172C80.8948 17.0493 80.5588 17.9547 80.2975 18.888C80.2042 19.2427 80.1295 19.588 80.0735 19.924C80.0362 20.2227 80.0082 20.5307 79.9895 20.848C79.9895 21.1467 80.0362 21.4267 80.1295 21.688C80.1668 21.6693 80.2882 21.5573 80.4935 21.352C80.7175 21.128 81.0255 20.7733 81.4175 20.288C81.8095 19.8027 82.2855 19.1587 82.8455 18.356C83.4055 17.5347 84.0682 16.508 84.8335 15.276ZM69.9375 31.852C70.9268 31.852 71.8602 31.7213 72.7375 31.46C73.5962 31.2173 74.4082 30.8813 75.1735 30.452C75.9202 30.0413 76.6108 29.556 77.2455 28.996C77.8802 28.4547 78.4682 27.8667 79.0095 27.232C78.2255 27.176 77.3762 27.1387 76.4615 27.12C75.5282 27.1013 74.5015 27.1107 73.3815 27.148C71.4402 27.2227 69.9562 27.4 68.9295 27.68C67.8842 27.96 67.1282 28.2493 66.6615 28.548C66.1015 28.9027 65.7935 29.304 65.7375 29.752C65.7188 29.864 65.7188 29.9667 65.7375 30.06C65.7562 30.1533 65.7748 30.2467 65.7935 30.34C65.8122 30.452 65.8682 30.5547 65.9615 30.648C66.2042 30.9653 66.5495 31.1987 66.9975 31.348C67.4455 31.516 67.8842 31.6373 68.3135 31.712C68.8175 31.7867 69.3588 31.8333 69.9375 31.852ZM95.8484 20.54C95.6244 20.876 95.3538 21.2027 95.0364 21.52C94.7751 21.7813 94.4484 22.0427 94.0564 22.304C93.6644 22.5653 93.2071 22.752 92.6844 22.864C92.2178 22.976 91.7884 22.9667 91.3964 22.836C91.0231 22.724 90.7244 22.4813 90.5004 22.108C90.2578 21.7347 90.1178 21.2307 90.0804 20.596C90.0431 19.9613 90.1458 19.1867 90.3884 18.272C90.5751 17.5627 90.8084 16.9187 91.0884 16.34C91.3684 15.7427 91.6391 15.2387 91.9004 14.828C92.2178 14.3427 92.5351 13.9227 92.8524 13.568C93.1511 13.1947 93.4964 12.8493 93.8884 12.532C94.2058 12.2707 94.5978 12.028 95.0644 11.804C95.5311 11.58 96.0351 11.4493 96.5764 11.412C97.0991 11.3747 97.5471 11.4587 97.9204 11.664C98.2378 11.832 98.5084 12.1307 98.7324 12.56C98.9564 12.9707 99.0031 13.5867 98.8724 14.408C99.0404 14.2587 99.2084 14.1653 99.3764 14.128C99.5631 14.072 99.7404 14.0907 99.9084 14.184C100.114 14.3147 100.244 14.492 100.3 14.716C100.375 14.94 100.394 15.1733 100.356 15.416C100.338 15.6587 100.282 15.9013 100.188 16.144C100.114 16.368 100.039 16.5547 99.9644 16.704C99.6658 17.3013 99.3484 17.9453 99.0124 18.636C98.6764 19.3267 98.3871 19.98 98.1444 20.596C97.9204 21.212 97.7711 21.7627 97.6964 22.248C97.6404 22.7147 97.7244 23.0133 97.9484 23.144C98.1538 23.0507 98.3684 22.9013 98.5924 22.696C98.8164 22.4907 99.0404 22.2573 99.2644 21.996C99.5071 21.7347 99.7404 21.4547 99.9644 21.156C100.188 20.8573 100.403 20.5587 100.608 20.26C101.094 19.5507 101.57 18.7853 102.036 17.964C102.41 17.3293 102.736 16.7693 103.016 16.284C103.315 15.78 103.558 15.3973 103.744 15.136C103.782 15.0987 103.819 15.0707 103.856 15.052C103.912 15.0147 104.006 15.024 104.136 15.08C104.211 15.1173 104.22 15.2293 104.164 15.416C103.996 15.8827 103.782 16.4053 103.52 16.984C103.296 17.4693 102.998 18.0387 102.624 18.692C102.27 19.3453 101.831 20.0547 101.308 20.82C100.991 21.2867 100.664 21.7347 100.328 22.164C100.03 22.5373 99.6844 22.9013 99.2924 23.256C98.9191 23.6107 98.5458 23.872 98.1724 24.04C97.9111 24.152 97.6871 24.2173 97.5004 24.236C97.3138 24.2547 97.1458 24.2453 96.9964 24.208C96.8284 24.1707 96.6884 24.1053 96.5764 24.012C96.3898 23.8813 96.2404 23.732 96.1284 23.564C96.0351 23.4147 95.9604 23.2653 95.9044 23.116C95.8298 22.948 95.7831 22.7707 95.7644 22.584C95.7084 22.3227 95.6898 22.0147 95.7084 21.66C95.7271 21.3053 95.7738 20.932 95.8484 20.54ZM92.9364 21.912C93.0484 21.856 93.1604 21.7907 93.2724 21.716C93.4031 21.6413 93.5151 21.5667 93.6084 21.492C93.7204 21.4173 93.8324 21.324 93.9444 21.212C94.3178 20.8947 94.6724 20.54 95.0084 20.148C95.3444 19.7373 95.6431 19.3547 95.9044 19C96.2031 18.5893 96.4831 18.1787 96.7444 17.768C96.8564 17.488 96.9871 17.208 97.1364 16.928C97.2858 16.6293 97.4351 16.3587 97.5844 16.116C97.7524 15.836 97.9111 15.5653 98.0604 15.304C98.0791 15.2107 98.0978 15.0613 98.1164 14.856C98.1351 14.6507 98.1351 14.436 98.1164 14.212C98.0978 13.988 98.0511 13.7827 97.9764 13.596C97.9204 13.4093 97.8178 13.288 97.6684 13.232C97.2578 13.0453 96.7444 13.2133 96.1284 13.736C95.5311 14.24 94.8871 14.9587 94.1964 15.892C93.8604 16.34 93.5338 16.872 93.2164 17.488C92.9178 18.0853 92.6564 18.6733 92.4324 19.252C92.2271 19.8307 92.0684 20.3533 91.9564 20.82C91.8631 21.2867 91.8631 21.6133 91.9564 21.8C92.0498 22.0053 92.1898 22.0987 92.3764 22.08C92.5818 22.0613 92.7684 22.0053 92.9364 21.912ZM105.306 21.268C105.306 21.3427 105.316 21.4173 105.334 21.492C105.372 21.6413 105.39 21.744 105.39 21.8C105.39 21.9493 105.372 22.0893 105.334 22.22C105.297 22.332 105.194 22.4067 105.026 22.444C104.933 22.4813 104.849 22.5 104.774 22.5C104.7 22.5 104.616 22.5 104.522 22.5C104.429 22.4813 104.326 22.4347 104.214 22.36C104.121 22.2853 104.028 22.2107 103.934 22.136C103.841 22.0427 103.776 21.94 103.738 21.828C103.589 21.5293 103.496 21.184 103.458 20.792C103.421 20.4 103.421 20.036 103.458 19.7C103.496 19.308 103.552 18.9067 103.626 18.496C103.757 17.9173 103.916 17.3293 104.102 16.732C104.289 16.1347 104.476 15.5653 104.662 15.024C104.868 14.464 105.064 13.9507 105.25 13.484C105.456 13.0173 105.633 12.616 105.782 12.28C106.361 10.9173 107.07 9.57333 107.91 8.248C107.518 8.248 107.126 8.23867 106.734 8.22C106.398 8.22 106.025 8.22 105.614 8.22C105.204 8.20133 104.821 8.18267 104.466 8.164C103.682 8.14533 103.001 8.23867 102.422 8.444C101.844 8.63067 101.33 8.864 100.882 9.144C100.434 9.424 100.042 9.704 99.7063 9.984C99.3516 10.264 99.0343 10.4787 98.7543 10.628C98.381 10.8333 98.0823 10.9267 97.8583 10.908C97.6343 10.8707 97.4476 10.796 97.2983 10.684C97.1303 10.5533 97.009 10.3667 96.9343 10.124C96.8036 9.65733 96.8783 9.26533 97.1583 8.948C97.4383 8.63067 97.7743 8.36933 98.1663 8.164C98.633 7.94 99.1743 7.75333 99.7903 7.604C100.108 7.548 100.509 7.492 100.994 7.436C101.424 7.39867 101.974 7.38 102.646 7.38C103.3 7.36133 104.121 7.37067 105.11 7.408C105.577 7.42667 106.006 7.436 106.398 7.436C106.809 7.41733 107.173 7.39867 107.49 7.38C107.845 7.36133 108.172 7.34267 108.47 7.324C108.974 6.57733 109.488 5.868 110.01 5.196C110.533 4.524 111.046 3.92667 111.55 3.404C112.054 2.88133 112.53 2.44267 112.978 2.088C113.426 1.73333 113.837 1.49067 114.21 1.36C114.397 1.28533 114.593 1.23867 114.798 1.22C114.966 1.20133 115.144 1.21067 115.33 1.248C115.536 1.26667 115.722 1.332 115.89 1.444C116.096 1.59333 116.254 1.808 116.366 2.088C116.46 2.33067 116.506 2.648 116.506 3.04C116.506 3.432 116.394 3.91733 116.17 4.496C115.89 5.09333 115.508 5.63467 115.022 6.12C114.593 6.54933 114.033 6.95067 113.342 7.324C112.67 7.67867 111.812 7.90267 110.766 7.996C110.505 8.444 110.253 8.90133 110.01 9.368C109.805 9.76 109.572 10.18 109.31 10.628C109.068 11.076 108.844 11.496 108.638 11.888C108.358 12.4107 108.088 12.9613 107.826 13.54C107.584 14.044 107.332 14.6133 107.07 15.248C106.809 15.8827 106.548 16.5267 106.286 17.18C106.454 16.9373 106.641 16.676 106.846 16.396C107.052 16.116 107.266 15.8453 107.49 15.584C107.845 15.1547 108.237 14.7253 108.666 14.296C109.096 13.8667 109.534 13.4747 109.982 13.12C110.43 12.7653 110.878 12.4667 111.326 12.224C111.774 11.9627 112.213 11.7853 112.642 11.692C112.829 11.6547 113.025 11.6547 113.23 11.692C113.454 11.7293 113.669 11.8227 113.874 11.972C114.136 12.2147 114.266 12.504 114.266 12.84C114.266 13.176 114.22 13.484 114.126 13.764C114.07 13.932 114.005 14.0907 113.93 14.24C113.856 14.3893 113.772 14.5387 113.678 14.688C113.585 14.8187 113.473 14.94 113.342 15.052C113.081 15.2947 112.801 15.4813 112.502 15.612C112.222 15.7427 111.914 15.752 111.578 15.64C111.298 15.5467 111.121 15.3973 111.046 15.192C110.972 14.968 110.953 14.7533 110.99 14.548C111.028 14.3053 111.112 14.044 111.242 13.764C111.13 13.8013 110.962 13.8947 110.738 14.044C110.533 14.1747 110.281 14.3707 109.982 14.632C109.945 14.7253 109.889 14.884 109.814 15.108C109.74 15.332 109.656 15.6027 109.562 15.92C109.488 16.2187 109.413 16.5453 109.338 16.9C109.282 17.2547 109.254 17.6093 109.254 17.964C109.254 18.244 109.273 18.5333 109.31 18.832C109.366 19.1307 109.46 19.4107 109.59 19.672C109.721 19.9147 109.889 20.12 110.094 20.288C110.3 20.4373 110.57 20.512 110.906 20.512C111.149 20.512 111.401 20.4653 111.662 20.372C111.924 20.26 112.176 20.12 112.418 19.952C112.68 19.7653 112.922 19.56 113.146 19.336C113.389 19.112 113.613 18.8787 113.818 18.636C114.304 18.076 114.77 17.432 115.218 16.704C115.442 16.3307 115.638 16.004 115.806 15.724C115.993 15.4253 116.152 15.2013 116.282 15.052C116.301 15.0333 116.329 15.024 116.366 15.024C116.46 15.024 116.553 15.0427 116.646 15.08C116.721 15.0987 116.749 15.1733 116.73 15.304C116.73 15.3973 116.581 15.7613 116.282 16.396C116.077 16.844 115.844 17.3107 115.582 17.796C115.358 18.2067 115.088 18.664 114.77 19.168C114.453 19.6533 114.108 20.12 113.734 20.568C113.454 20.9227 113.146 21.24 112.81 21.52C112.53 21.7627 112.204 21.9867 111.83 22.192C111.457 22.3787 111.065 22.4813 110.654 22.5C110.262 22.5187 109.936 22.4813 109.674 22.388C109.413 22.276 109.236 22.192 109.142 22.136C108.657 21.8933 108.274 21.576 107.994 21.184C107.714 20.792 107.509 20.372 107.378 19.924C107.266 19.476 107.21 19.028 107.21 18.58C107.21 18.132 107.248 17.7213 107.322 17.348C106.874 17.9267 106.464 18.552 106.09 19.224C105.736 19.8773 105.474 20.5587 105.306 21.268ZM115.498 2.928C115.442 2.89067 115.33 2.86267 115.162 2.844C115.013 2.82533 114.78 2.928 114.462 3.152C114.164 3.376 113.762 3.77733 113.258 4.356C112.773 4.93467 112.166 5.79333 111.438 6.932C111.924 6.876 112.353 6.764 112.726 6.596C113.118 6.428 113.445 6.26 113.706 6.092C114.005 5.88667 114.266 5.672 114.49 5.448C114.882 4.98133 115.153 4.58933 115.302 4.272C115.452 3.95467 115.545 3.69333 115.582 3.488C115.62 3.264 115.592 3.07733 115.498 2.928ZM128.636 6.204C127.311 6.16667 125.873 6.19467 124.324 6.288C124.119 6.60533 123.913 6.92267 123.708 7.24C123.521 7.53867 123.381 7.79067 123.288 7.996C123.027 8.444 122.775 8.90133 122.532 9.368C122.327 9.76 122.093 10.18 121.832 10.628C121.589 11.076 121.365 11.496 121.16 11.888C120.525 13.1013 119.965 14.2867 119.48 15.444C119.275 15.9293 119.069 16.4333 118.864 16.956C118.677 17.4787 118.5 17.992 118.332 18.496C118.183 18.9813 118.061 19.4573 117.968 19.924C117.893 20.372 117.865 20.7733 117.884 21.128C117.884 21.24 117.921 21.3613 117.996 21.492C118.071 21.6227 118.201 21.6507 118.388 21.576C118.817 21.4453 119.265 21.156 119.732 20.708C120.217 20.26 120.675 19.7933 121.104 19.308C121.589 18.7293 122.075 18.0947 122.56 17.404C122.84 17.0307 123.101 16.6667 123.344 16.312C123.587 15.9387 123.811 15.612 124.016 15.332C124.053 15.2573 124.1 15.192 124.156 15.136C124.249 15.0427 124.333 15.0053 124.408 15.024C124.501 15.0613 124.576 15.1267 124.632 15.22C124.688 15.3133 124.669 15.4533 124.576 15.64C124.427 15.9387 124.259 16.2467 124.072 16.564C123.923 16.8253 123.755 17.124 123.568 17.46C123.381 17.7773 123.195 18.0853 123.008 18.384C122.541 19.056 122.047 19.672 121.524 20.232C121.076 20.7173 120.572 21.1747 120.012 21.604C119.452 22.0333 118.883 22.304 118.304 22.416C118.043 22.472 117.744 22.4907 117.408 22.472C117.072 22.4533 116.736 22.304 116.4 22.024C116.195 21.8373 116.064 21.5573 116.008 21.184C115.933 20.792 115.915 20.4 115.952 20.008C115.971 19.5413 116.036 19.056 116.148 18.552C116.26 18.0107 116.4 17.4787 116.568 16.956C116.717 16.4147 116.885 15.892 117.072 15.388C117.333 14.5853 117.632 13.7733 117.968 12.952C118.323 12.1307 118.687 11.3373 119.06 10.572C119.433 9.80667 119.807 9.088 120.18 8.416C120.572 7.72533 120.936 7.1 121.272 6.54C120.712 6.57733 120.18 6.63333 119.676 6.708C119.228 6.764 118.761 6.82933 118.276 6.904C117.809 6.96 117.389 7.00667 117.016 7.044C116.68 7.1 116.316 7.156 115.924 7.212C115.588 7.24933 115.205 7.296 114.776 7.352C114.347 7.408 113.889 7.45467 113.404 7.492C112.247 7.62267 111.257 7.66 110.436 7.604C109.596 7.52933 108.905 7.42667 108.364 7.296C107.729 7.14667 107.207 6.96933 106.796 6.764C106.497 6.596 106.283 6.41867 106.152 6.232C106.003 6.02667 105.9 5.84 105.844 5.672C105.788 5.48533 105.769 5.32667 105.788 5.196C105.788 5.04667 105.797 4.944 105.816 4.888C105.853 4.73867 105.9 4.608 105.956 4.496C105.993 4.40267 106.049 4.31867 106.124 4.244C106.199 4.15067 106.283 4.09467 106.376 4.076C106.675 4.03867 106.861 4.104 106.936 4.272C106.992 4.44 107.011 4.67333 106.992 4.972C106.992 5.28933 107.132 5.56 107.412 5.784C107.655 5.98933 108.037 6.176 108.56 6.344C109.083 6.512 109.857 6.596 110.884 6.596C111.22 6.596 111.612 6.57733 112.06 6.54C112.433 6.50267 112.881 6.46533 113.404 6.428C113.908 6.372 114.477 6.29733 115.112 6.204C116.176 6.05467 117.128 5.93333 117.968 5.84C118.808 5.74667 119.527 5.66267 120.124 5.588C120.815 5.51333 121.431 5.43867 121.972 5.364C122.271 4.89733 122.495 4.56133 122.644 4.356C123.017 3.77733 123.344 3.32 123.624 2.984C123.904 2.62933 124.165 2.33067 124.408 2.088C124.632 1.88267 124.847 1.724 125.052 1.612C125.239 1.51867 125.425 1.46267 125.612 1.444C125.817 1.40667 126.013 1.46267 126.2 1.612C126.349 1.74267 126.433 1.92 126.452 2.144C126.471 2.368 126.433 2.62 126.34 2.9C126.265 3.16133 126.144 3.45067 125.976 3.768C125.808 4.06667 125.621 4.36533 125.416 4.664C125.397 4.70133 125.369 4.748 125.332 4.804C125.295 4.84133 125.248 4.89733 125.192 4.972C125.155 5.028 125.117 5.09333 125.08 5.168C125.509 5.14933 125.92 5.14 126.312 5.14C126.723 5.12133 127.124 5.12133 127.516 5.14C128.169 5.14 128.813 5.17733 129.448 5.252C129.989 5.308 130.568 5.40133 131.184 5.532C131.819 5.644 132.397 5.83067 132.92 6.092C133.088 6.18533 133.265 6.288 133.452 6.4C133.601 6.49333 133.751 6.624 133.9 6.792C134.068 6.94133 134.217 7.11867 134.348 7.324C134.385 7.436 134.432 7.56667 134.488 7.716C134.525 7.84667 134.553 7.996 134.572 8.164C134.609 8.332 134.609 8.51867 134.572 8.724C134.516 9.15333 134.413 9.44267 134.264 9.592C134.115 9.74133 133.965 9.80667 133.816 9.788C133.667 9.76933 133.601 9.704 133.62 9.592C133.657 9.46133 133.704 9.32133 133.76 9.172C133.816 8.96667 133.844 8.78933 133.844 8.64C133.863 8.49067 133.863 8.36 133.844 8.248C133.825 8.11733 133.807 8.00533 133.788 7.912C133.695 7.72533 133.564 7.55733 133.396 7.408C133.228 7.25867 133.051 7.13733 132.864 7.044C132.659 6.932 132.435 6.82933 132.192 6.736C131.893 6.64267 131.567 6.55867 131.212 6.484C130.895 6.428 130.521 6.372 130.092 6.316C129.663 6.26 129.177 6.22267 128.636 6.204ZM126.681 22.164C126.644 22.1827 126.541 22.2293 126.373 22.304C126.224 22.3787 126.019 22.444 125.757 22.5C125.515 22.5373 125.244 22.528 124.945 22.472C124.665 22.416 124.385 22.276 124.105 22.052C123.825 21.8093 123.667 21.4173 123.629 20.876C123.573 20.3347 123.611 19.7373 123.741 19.084C123.872 18.412 124.059 17.74 124.301 17.068C124.544 16.3773 124.815 15.78 125.113 15.276C125.543 14.548 125.916 13.9693 126.233 13.54C126.551 13.092 126.84 12.7373 127.101 12.476C127.288 12.2893 127.475 12.14 127.661 12.028C127.811 11.9347 127.979 11.86 128.165 11.804C128.352 11.748 128.539 11.7573 128.725 11.832C128.931 11.9253 129.061 12.084 129.117 12.308C129.173 12.532 129.164 12.7933 129.089 13.092C129.033 13.372 128.921 13.68 128.753 14.016C128.604 14.352 128.417 14.688 128.193 15.024C128.025 15.304 127.783 15.7147 127.465 16.256C127.167 16.7787 126.868 17.3387 126.569 17.936C126.289 18.5333 126.047 19.1307 125.841 19.728C125.636 20.3067 125.552 20.7827 125.589 21.156C125.608 21.2867 125.655 21.4173 125.729 21.548C125.804 21.6787 125.953 21.6787 126.177 21.548C126.308 21.492 126.448 21.3987 126.597 21.268C126.747 21.1373 126.896 20.9973 127.045 20.848C127.213 20.68 127.372 20.5027 127.521 20.316C127.671 20.148 127.811 19.9707 127.941 19.784C128.091 19.5973 128.24 19.4013 128.389 19.196C128.669 18.7853 128.94 18.3653 129.201 17.936C129.463 17.5067 129.715 17.1053 129.957 16.732C130.181 16.3587 130.377 16.032 130.545 15.752C130.732 15.4533 130.891 15.2293 131.021 15.08C131.04 15.0613 131.059 15.052 131.077 15.052H131.133C131.171 15.052 131.208 15.052 131.245 15.052C131.283 15.052 131.32 15.0613 131.357 15.08C131.451 15.136 131.488 15.22 131.469 15.332C131.432 15.444 131.273 15.808 130.993 16.424C130.863 16.7227 130.704 17.0587 130.517 17.432C130.331 17.8053 130.107 18.2067 129.845 18.636C129.584 19.0653 129.304 19.4853 129.005 19.896C128.725 20.3067 128.408 20.6987 128.053 21.072C127.904 21.2213 127.755 21.3613 127.605 21.492C127.475 21.604 127.325 21.7253 127.157 21.856C126.989 21.9867 126.831 22.0893 126.681 22.164ZM133.569 5.308C133.756 5.45733 133.887 5.62533 133.961 5.812C134.036 5.96133 134.055 6.13867 134.017 6.344C133.98 6.53067 133.84 6.72667 133.597 6.932C133.28 7.19333 132.907 7.492 132.477 7.828C132.067 8.164 131.675 8.50933 131.301 8.864C130.947 9.21867 130.657 9.58267 130.433 9.956C130.228 10.3107 130.163 10.6467 130.237 10.964C130.256 11.0387 130.265 11.1133 130.265 11.188C130.265 11.3373 130.181 11.4213 130.013 11.44C129.808 11.4773 129.621 11.4307 129.453 11.3C129.304 11.1507 129.201 11.0013 129.145 10.852C129.052 10.5907 129.015 10.2547 129.033 9.844C129.071 9.43333 129.164 9.004 129.313 8.556C129.463 8.108 129.668 7.66 129.929 7.212C130.209 6.764 130.536 6.36267 130.909 6.008C131.227 5.728 131.544 5.504 131.861 5.336C132.123 5.18667 132.403 5.09333 132.701 5.056C133.019 5.01867 133.308 5.10267 133.569 5.308ZM140.573 22.5V20.232C142.57 18.0853 144.297 16.1347 145.753 14.38C147.209 12.6067 148.095 11.4307 148.413 10.852C148.749 10.2733 148.917 9.54533 148.917 8.668C148.917 7.772 148.637 7.072 148.077 6.568C147.517 6.064 146.695 5.812 145.613 5.812C144.53 5.812 143.401 6.04533 142.225 6.512L141.609 4.496C143.139 3.78667 144.689 3.432 146.257 3.432C147.825 3.432 149.066 3.88933 149.981 4.804C150.914 5.71867 151.381 6.988 151.381 8.612C151.381 10.236 150.587 12.028 149.001 13.988C146.742 16.8067 145.006 18.888 143.793 20.232H152.053L151.857 22.5H140.573ZM159.238 13.4H157.894V11.496H159.21C160.312 11.3653 161.161 10.992 161.758 10.376C162.374 9.76 162.682 9.04133 162.682 8.22C162.682 7.38 162.402 6.764 161.842 6.372C161.301 5.98 160.508 5.784 159.462 5.784C158.436 5.784 157.334 6.01733 156.158 6.484L155.542 4.468C157.129 3.77733 158.678 3.432 160.19 3.432C161.721 3.432 162.934 3.852 163.83 4.692C164.745 5.51333 165.202 6.624 165.202 8.024C165.202 8.88267 164.997 9.69467 164.586 10.46C164.194 11.2067 163.625 11.7853 162.878 12.196C164.932 12.9613 165.958 14.5107 165.958 16.844C165.958 18.6173 165.408 20.064 164.306 21.184C163.224 22.304 161.786 22.864 159.994 22.864C158.221 22.864 156.541 22.3787 154.954 21.408L155.878 19.308C157.446 20.092 158.772 20.484 159.854 20.484C160.956 20.484 161.824 20.148 162.458 19.476C163.093 18.7853 163.41 17.9173 163.41 16.872C163.41 15.8267 163.046 14.9867 162.318 14.352C161.59 13.7173 160.564 13.4 159.238 13.4Z" fill="black"/>
</svg>
