<svg width="98" height="97" viewBox="0 0 98 97" fill="none" xmlns="http://www.w3.org/2000/svg">
<path d="M49 4L59.6512 20.7361L78.5682 14.762L75.9698 34.429L94.3012 42.0122L79.6689 55.4078L88.8372 73L69.0177 73.8562L64.7329 93.2259L49 81.142L33.2671 93.2259L28.9823 73.8562L9.16283 73L18.3311 55.4078L3.69884 42.0122L22.0302 34.429L19.4318 14.762L38.3488 20.7361L49 4Z" stroke="white" stroke-width="4"/>
<path d="M49 11.667L57.8759 25.6137L73.6401 20.6353L71.4748 37.0245L86.7509 43.3438L74.5574 54.5068L82.1976 69.167L65.6814 69.8805L62.1107 86.0219L49 75.952L35.8892 86.0219L32.3185 69.8805L15.8023 69.167L23.4426 54.5068L11.249 43.3438L26.5252 37.0245L24.3598 20.6353L40.124 25.6137L49 11.667Z" fill="white"/>
</svg>
