<svg width="128" height="134" viewBox="0 0 128 134" fill="none" xmlns="http://www.w3.org/2000/svg">
<path d="M65.5379 5.72141L64 3.87155L62.4621 5.72141L49.2521 21.6107L29.2256 16.5206L26.894 15.928L26.7372 18.3286L25.3896 38.9479L6.19586 46.6012L3.96129 47.4922L5.24537 49.5265L16.2749 67L5.24537 84.4735L3.96129 86.5078L6.19586 87.3988L25.3896 95.0521L26.7372 115.671L26.894 118.072L29.2256 117.479L49.2521 112.389L62.4621 128.279L64 130.128L65.5379 128.279L78.7479 112.389L98.7745 117.479L101.106 118.072L101.263 115.671L102.61 95.0521L121.804 87.3988L124.039 86.5078L122.755 84.4735L111.725 67L122.755 49.5265L124.039 47.4922L121.804 46.6012L102.61 38.9479L101.263 18.3286L101.106 15.928L98.7745 16.5206L78.7479 21.6107L65.5379 5.72141Z" fill="#F8A41E" stroke="#FBA421" stroke-width="4"/>
<path d="M64 18.5642L74.9119 31.6894L75.3154 32.1747L75.9272 32.0192L92.4699 27.8146L93.583 44.8469L93.6242 45.4768L94.2105 45.7106L110.065 52.0325L100.954 66.4662L100.617 67L100.954 67.5338L110.065 81.9675L94.2105 88.2894L93.6242 88.5232L93.583 89.1531L92.4699 106.185L75.9272 101.981L75.3154 101.825L74.9119 102.311L64 115.436L53.0881 102.311L52.6846 101.825L52.0728 101.981L35.5302 106.185L34.417 89.1531L34.3759 88.5232L33.7896 88.2894L17.9349 81.9675L27.0456 67.5338L27.3826 67L27.0456 66.4662L17.9349 52.0325L33.7896 45.7106L34.3759 45.4768L34.417 44.8469L35.5302 27.8146L52.0728 32.0192L52.6846 32.1747L53.0881 31.6894L64 18.5642Z" stroke="black" stroke-width="2"/>
<path d="M35.5614 63V53.06H42.1834V54.446H37.1294V57.414H41.3574V58.716H37.1294V63H35.5614ZM47.5107 63.07C46.8107 63.07 46.1714 62.93 45.5927 62.65C45.0234 62.3607 44.5287 61.9827 44.1087 61.516C43.6981 61.04 43.3807 60.4987 43.1567 59.892C42.9327 59.2853 42.8207 58.6647 42.8207 58.03C42.8207 57.3673 42.9374 56.7327 43.1707 56.126C43.4134 55.5193 43.7447 54.9827 44.1647 54.516C44.5847 54.0493 45.0841 53.6807 45.6627 53.41C46.2414 53.13 46.8714 52.99 47.5527 52.99C48.2527 52.99 48.8874 53.1393 49.4567 53.438C50.0354 53.7273 50.5301 54.11 50.9407 54.586C51.3514 55.062 51.6687 55.6033 51.8927 56.21C52.1167 56.8073 52.2287 57.4187 52.2287 58.044C52.2287 58.7067 52.1074 59.3413 51.8647 59.948C51.6314 60.5547 51.3047 61.0913 50.8847 61.558C50.4647 62.0153 49.9654 62.384 49.3867 62.664C48.8174 62.9347 48.1921 63.07 47.5107 63.07ZM44.4167 58.03C44.4167 58.4967 44.4867 58.9493 44.6267 59.388C44.7761 59.8267 44.9861 60.214 45.2567 60.55C45.5274 60.886 45.8541 61.1567 46.2367 61.362C46.6194 61.558 47.0487 61.656 47.5247 61.656C48.0101 61.656 48.4441 61.5533 48.8267 61.348C49.2187 61.1333 49.5454 60.8533 49.8067 60.508C50.0774 60.1627 50.2827 59.7753 50.4227 59.346C50.5627 58.9167 50.6327 58.478 50.6327 58.03C50.6327 57.554 50.5581 57.1013 50.4087 56.672C50.2594 56.2333 50.0494 55.8507 49.7787 55.524C49.5081 55.188 49.1814 54.922 48.7987 54.726C48.4161 54.5207 47.9914 54.418 47.5247 54.418C47.0394 54.418 46.6007 54.5253 46.2087 54.74C45.8261 54.9453 45.4994 55.216 45.2287 55.552C44.9674 55.888 44.7667 56.2753 44.6267 56.714C44.4867 57.1433 44.4167 57.582 44.4167 58.03ZM53.868 63V53.06H55.436V61.614H60.77V63H53.868ZM62.1259 63V53.06H63.6939V61.614H69.0279V63H62.1259ZM73.9932 63.07C73.2932 63.07 72.6538 62.93 72.0752 62.65C71.5058 62.3607 71.0112 61.9827 70.5912 61.516C70.1805 61.04 69.8632 60.4987 69.6392 59.892C69.4152 59.2853 69.3032 58.6647 69.3032 58.03C69.3032 57.3673 69.4198 56.7327 69.6532 56.126C69.8958 55.5193 70.2272 54.9827 70.6472 54.516C71.0672 54.0493 71.5665 53.6807 72.1452 53.41C72.7238 53.13 73.3538 52.99 74.0352 52.99C74.7352 52.99 75.3698 53.1393 75.9392 53.438C76.5178 53.7273 77.0125 54.11 77.4232 54.586C77.8338 55.062 78.1512 55.6033 78.3752 56.21C78.5992 56.8073 78.7112 57.4187 78.7112 58.044C78.7112 58.7067 78.5898 59.3413 78.3472 59.948C78.1138 60.5547 77.7872 61.0913 77.3672 61.558C76.9472 62.0153 76.4478 62.384 75.8692 62.664C75.2998 62.9347 74.6745 63.07 73.9932 63.07ZM70.8992 58.03C70.8992 58.4967 70.9692 58.9493 71.1092 59.388C71.2585 59.8267 71.4685 60.214 71.7392 60.55C72.0098 60.886 72.3365 61.1567 72.7192 61.362C73.1018 61.558 73.5312 61.656 74.0072 61.656C74.4925 61.656 74.9265 61.5533 75.3092 61.348C75.7012 61.1333 76.0278 60.8533 76.2892 60.508C76.5598 60.1627 76.7652 59.7753 76.9052 59.346C77.0452 58.9167 77.1152 58.478 77.1152 58.03C77.1152 57.554 77.0405 57.1013 76.8912 56.672C76.7418 56.2333 76.5318 55.8507 76.2612 55.524C75.9905 55.188 75.6638 54.922 75.2812 54.726C74.8985 54.5207 74.4738 54.418 74.0072 54.418C73.5218 54.418 73.0832 54.5253 72.6912 54.74C72.3085 54.9453 71.9818 55.216 71.7112 55.552C71.4498 55.888 71.2492 56.2753 71.1092 56.714C70.9692 57.1433 70.8992 57.582 70.8992 58.03ZM83.5093 53.102H84.9793L86.1973 56.476L87.4293 53.102H88.9133L87.2053 57.526L88.7033 61.18L91.7973 53.06H93.5053L89.4173 63H88.0593L86.2113 58.548L84.3493 63H83.0053L78.9173 53.06H80.6113L83.7333 61.18L85.2033 57.526L83.5093 53.102ZM48.7617 72.446H45.4577V81H43.8897V72.446H40.5717V71.06H48.7617V72.446ZM50.122 81V71.06H54.448C54.896 71.06 55.3066 71.1533 55.68 71.34C56.0626 71.5267 56.3893 71.774 56.66 72.082C56.9306 72.3807 57.1406 72.726 57.29 73.118C57.4486 73.5007 57.528 73.8927 57.528 74.294C57.528 74.63 57.4813 74.952 57.388 75.26C57.2946 75.568 57.164 75.8527 56.996 76.114C56.828 76.3753 56.6226 76.604 56.38 76.8C56.1373 76.9867 55.8713 77.1267 55.582 77.22L57.948 81H56.17L53.986 77.542H51.69V81H50.122ZM51.69 76.156H54.434C54.658 76.156 54.8586 76.1093 55.036 76.016C55.2226 75.9133 55.3813 75.778 55.512 75.61C55.6426 75.4327 55.7453 75.232 55.82 75.008C55.8946 74.784 55.932 74.546 55.932 74.294C55.932 74.042 55.8853 73.804 55.792 73.58C55.708 73.356 55.5913 73.16 55.442 72.992C55.302 72.824 55.134 72.6933 54.938 72.6C54.7513 72.4973 54.5553 72.446 54.35 72.446H51.69V76.156ZM66.3052 79.614V81H59.4872V71.06H66.1792V72.446H61.0552V75.274H65.4932V76.576H61.0552V79.614H66.3052ZM69.5591 74V81H67.9911V71.06H69.2231L74.9071 78.228V71.074H76.4891V81H75.1871L69.5591 74ZM78.7235 81V71.06H82.2515C83.0542 71.06 83.7542 71.1907 84.3515 71.452C84.9582 71.7133 85.4622 72.068 85.8635 72.516C86.2742 72.964 86.5822 73.4913 86.7875 74.098C86.9928 74.6953 87.0955 75.3347 87.0955 76.016C87.0955 76.772 86.9788 77.458 86.7455 78.074C86.5215 78.6807 86.1995 79.2033 85.7795 79.642C85.3595 80.0713 84.8508 80.4073 84.2535 80.65C83.6562 80.8833 82.9888 81 82.2515 81H78.7235ZM85.4995 76.016C85.4995 75.4933 85.4248 75.0127 85.2755 74.574C85.1355 74.1353 84.9255 73.762 84.6455 73.454C84.3655 73.1367 84.0248 72.8893 83.6235 72.712C83.2222 72.5347 82.7648 72.446 82.2515 72.446H80.2915V79.614H82.2515C82.7742 79.614 83.2362 79.5253 83.6375 79.348C84.0482 79.1613 84.3888 78.9093 84.6595 78.592C84.9395 78.2653 85.1495 77.8827 85.2895 77.444C85.4295 77.0053 85.4995 76.5293 85.4995 76.016Z" fill="black"/>
</svg>
