<svg width="170" height="134" viewBox="0 0 170 134" fill="none" xmlns="http://www.w3.org/2000/svg">
<path d="M132.388 54.6596L140.444 57.0224L138.491 60.7596L137.981 61.7348L139 62.1492L146.612 65.2434L143.622 68.2118L142.657 69.1695L143.859 69.8053L150.761 73.4584L146.863 75.6796L145.462 76.4784L146.801 77.3783L152.81 81.418L148.077 82.9046L146.353 83.446L147.727 84.6192L152.732 88.8919L147.215 89.6258L145.333 89.8761L146.604 91.2864L150.551 95.6681L144.313 95.6066L142.446 95.5882L143.465 97.1525L146.332 101.552L139.475 100.643L137.769 100.417L138.417 102.011L140.188 106.368L132.865 104.568L131.418 104.213L131.637 105.687L132.273 109.959L124.705 107.254L123.549 106.841L123.378 108.056L122.795 112.192L115.264 108.615L114.374 108.193L113.938 109.076L112.018 112.965L104.851 108.61L104.168 108.195L103.613 108.77L100.277 112.222L93.8078 107.243L93.2707 106.83L92.6878 107.175L87.9692 109.974L82.4924 104.566L82.0575 104.137L81.477 104.328L75.5207 106.29L71.2721 100.677L70.9159 100.206L70.3317 100.291L63.3643 101.297L60.5063 95.7151L60.2277 95.1711L59.6166 95.1709L51.9203 95.1677L50.5306 89.8607L50.3589 89.2051L49.6864 89.1216L41.5846 88.1161L41.6389 83.3156L41.6479 82.5163L40.8702 82.3315L32.7116 80.392L34.0792 76.2761L34.3897 75.3414L33.4599 75.0167L25.5886 72.2677L28.0808 68.916L28.813 67.9313L27.7008 67.4129L20.416 64.0172L23.8715 61.4255L25.0637 60.5313L23.7843 59.767L17.3107 55.8999L21.6325 54.0458L23.2138 53.3674L21.8416 52.3293L16.3248 48.1556L21.4564 47.0412L23.281 46.645L21.94 45.3458L17.4598 41.0051L23.3471 40.6626L25.242 40.5523L24.0795 39.0519L20.6708 34.6519L27.2343 35.1306L29.0364 35.262L28.1907 33.6652L25.869 29.2812L32.9826 30.6312L34.5674 30.9319L34.1319 29.3787L32.9209 25.0595L40.3982 27.3123L41.6996 27.7044L41.6867 26.3452L41.6464 22.1322L49.2351 25.281L50.2515 25.7027L50.5743 24.6507L51.8115 20.6192L59.2027 24.601L59.9809 25.0202L60.4925 24.2992L63.1165 20.6011L69.9747 25.2904L70.5781 25.703L71.1543 25.2533L75.1932 22.1017L81.2 27.3214L81.6817 27.74L82.2643 27.4794L87.6258 25.0804L92.5136 30.6195L92.9075 31.066L93.4877 30.9324L99.9819 29.4375L103.551 35.0654L103.869 35.5682L104.463 35.5275L111.833 35.0229L113.961 40.4978L114.192 41.0927L114.829 41.1335L122.771 41.6427L123.428 46.7232L123.522 47.4481L124.241 47.5787L132.416 49.0636L131.683 53.5384L131.54 54.4108L132.388 54.6596Z" stroke="#380E7C" stroke-width="2"/>
<path d="M49.8208 48.1675L45.7359 46.4898L44.5019 49.4942L48.3204 51.0626L47.8341 52.2466L44.0156 50.6783L42.1677 55.1776L40.7468 54.594L44.8074 44.7074L50.3132 46.9687L49.8208 48.1675ZM49.9301 56.9647L54.1334 58.691L53.641 59.8899L48.0169 57.5799L52.0775 47.6933L57.5684 49.9486L57.076 51.1474L53.006 49.4757L51.7781 52.4654L55.6113 54.0398L55.1311 55.209L51.2978 53.6346L49.9301 56.9647ZM57.4893 60.0694L61.6925 61.7957L61.2002 62.9945L55.576 60.6846L59.6367 50.798L65.1276 53.0532L64.6352 54.2521L60.5651 52.5804L59.3372 55.5701L63.1705 57.1445L62.6902 58.3137L58.857 56.7393L57.4893 60.0694ZM65.0484 63.174L68.7485 64.6937L68.2561 65.8925L63.1352 63.7893L67.1958 53.9027L68.6166 54.4863L65.0484 63.174ZM77.3994 59.5637L74.8241 58.506L75.3408 57.248L81.8973 59.9409L81.3806 61.1989L78.8054 60.1412L75.2615 68.7698L73.8555 68.1923L77.3994 59.5637ZM86.9571 66.9314L88.6835 62.7281L90.1043 63.3117L86.0437 73.1983L84.6229 72.6147L86.4708 68.1154L82.534 66.4985L80.686 70.9977L79.2652 70.4142L83.3258 60.5276L84.7466 61.1111L83.0203 65.3144L86.9571 66.9314ZM90.2985 73.5447L94.5018 75.2711L94.0094 76.4699L88.3853 74.16L92.4459 64.2734L97.9368 66.5286L97.4444 67.7274L93.3744 66.0558L92.1464 69.0454L95.9797 70.6198L95.4995 71.789L91.6662 70.2146L90.2985 73.5447ZM103.239 68.7064L102.245 77.9497L108.035 70.6759L109.574 71.3081L102.331 79.8878L100.821 79.2677L101.7 68.0742L103.239 68.7064ZM112.266 72.4138L108.205 82.3004L106.784 81.7169L110.845 71.8303L112.266 72.4138ZM119.244 78.2031C118.867 79.1207 118.216 79.6258 117.29 79.7183C117.824 80.2145 118.137 80.7175 118.227 81.2274C118.331 81.7315 118.252 82.3042 117.988 82.9456C117.619 83.8434 117.058 84.4375 116.305 84.7277C115.552 85.0179 114.632 84.9401 113.547 84.4943L110.542 83.2603L114.603 73.3737L116.423 74.1214C117.006 74.3605 117.428 74.5397 117.69 74.659C119.383 75.4233 119.901 76.6047 119.244 78.2031ZM115.586 75.0229L114.37 77.9829L115.821 78.5787C116.267 78.7274 116.663 78.7172 117.01 78.548C117.36 78.369 117.61 78.097 117.76 77.7319C117.914 77.3569 117.988 77.0645 117.982 76.8544C117.986 76.6485 117.954 76.4739 117.886 76.3306C117.828 76.1914 117.705 76.0546 117.518 75.9202C117.227 75.7313 116.815 75.5274 116.282 75.3086L115.586 75.0229ZM113.758 83.18C115.159 83.7554 116.099 83.461 116.577 82.2967C116.82 81.7047 116.807 81.1747 116.538 80.7067C116.352 80.2613 115.854 79.8725 115.045 79.5401L113.921 79.0782L112.456 82.645L113.758 83.18ZM120.549 85.9694L124.753 87.6957L124.26 88.8945L118.636 86.5846L122.697 76.698L128.188 78.9532L127.695 80.1521L123.625 78.4804L122.397 81.4701L126.231 83.0445L125.75 84.2137L121.917 82.6393L120.549 85.9694Z" fill="#380E7C"/>
</svg>
