<svg width="101" height="50" viewBox="0 0 152 143" fill="none" xmlns="http://www.w3.org/2000/svg">
<path d="M152 71.5002C152.01 110.973 117.992 142.979 76.0181 142.989C34.0447 142.998 0.00972642 111.006 -1.59643e-06 71.5339V71.5002C-0.0100336 32.0276 34.0082 0.0211662 75.9822 0.0114461C117.956 0.00229769 151.99 31.9935 152 71.4661L152 71.5002Z" fill="#156DD1"/>
<path d="M89.6802 71.5001C89.6802 78.6053 83.5555 84.365 76.0001 84.365C68.4445 84.365 62.3201 78.6053 62.3201 71.5001C62.3201 64.395 68.4445 58.6353 76.0001 58.6353C83.5555 58.6353 89.6802 64.395 89.6802 71.5001Z" fill="white"/>
<path d="M71.283 80.8646H80.7176V142.972H71.283V80.8646Z" fill="white"/>
</svg>
