<svg width="100" height="35" viewBox="0 0 100 35" fill="none" xmlns="http://www.w3.org/2000/svg">
<path fill-rule="evenodd" clip-rule="evenodd" d="M90.0227 29.1557H81.423C76.582 29.1557 76.1687 23.8379 76.1687 22.2057C76.1687 20.5735 76.6017 15.2557 81.423 15.2557H90.0227C94.8638 15.2557 95.277 20.5735 95.277 22.2057C95.277 23.8379 94.8441 29.1557 90.0227 29.1557ZM70.0682 10.3065H67.2738C66.0734 10.3065 65.8373 10.5698 65.365 11.4912C64.8927 12.3862 56.903 28.5239 56.903 28.5239C56.6472 29.0241 56.3717 29.2083 56.0371 29.2083C55.7026 29.2083 55.4271 28.9977 55.1712 28.5239C55.1712 28.5239 47.1619 12.3862 46.7093 11.4912C46.2566 10.5961 46.0008 10.3065 44.8004 10.3065H42.006C41.3566 10.3065 41.0614 10.9646 41.4746 11.7807L51.0386 30.9458C52.5146 33.8153 53.6166 35 56.0568 35C58.497 35 59.5793 33.8417 61.0749 30.9458L70.6389 11.7807C71.0522 10.9646 70.757 10.3065 70.1076 10.3065M33.2488 11.8597C33.2488 10.7277 33.5834 10.3065 34.4099 10.3065H36.4565C37.283 10.3065 37.6176 10.754 37.6176 11.8597V33.4205C37.6176 34.5525 37.283 34.9737 36.4565 34.9737H34.4099C33.5834 34.9737 33.2488 34.5261 33.2488 33.4205V11.8597ZM33.0717 5.04137C32.4026 4.1463 32.4026 3.4355 33.0717 2.56675L34.4886 0.671305C35.1577 -0.223768 35.689 -0.223768 36.3384 0.671305L37.7553 2.56675C38.4244 3.46183 38.4244 4.17262 37.7553 5.04137L36.3384 6.93682C35.6693 7.83189 35.138 7.83189 34.4886 6.93682L33.0717 5.04137ZM90.2195 9.41143H81.5805C72.6068 9.41143 71.8 19.2046 71.8 22.2057C71.8 25.2068 72.6068 35 81.5805 35H90.2195C99.1932 35 100 25.2068 100 22.2057C100 19.2046 99.1932 9.41143 90.2195 9.41143ZM28.8014 10.3065H26.007C24.8065 10.3065 24.5704 10.5698 24.0981 11.4912C23.6455 12.3862 15.6361 28.5239 15.6361 28.5239C15.3803 29.0241 15.1048 29.2083 14.7702 29.2083C14.4357 29.2083 14.1602 28.9977 13.9044 28.5239C13.9044 28.5239 5.91469 12.3862 5.44239 11.4912C4.98978 10.5961 4.73395 10.3065 3.53353 10.3065H0.739111C0.0109875 10.3065 -0.205482 10.9646 0.207778 11.7807C0.621037 12.5968 9.75209 30.9458 9.75209 30.9458C11.228 33.8153 12.33 35 14.7506 35C17.1908 35 18.2731 33.8417 19.749 30.9458L29.2933 11.7807C29.7066 10.9646 29.4705 10.3065 28.762 10.3065H28.8014Z" fill="#415FFF"/>
</svg>
