<svg width="150" height="35" viewBox="0 0 201 69" fill="none" xmlns="http://www.w3.org/2000/svg">
<path fill-rule="evenodd" clip-rule="evenodd" d="M180.101 56.6997H162.896C153.211 56.6997 152.384 46.3581 152.384 43.1839C152.384 40.0098 153.25 29.6681 162.896 29.6681H180.101C189.786 29.6681 190.613 40.0098 190.613 43.1839C190.613 46.3581 189.746 56.6997 180.101 56.6997ZM140.179 20.0433H134.589C132.187 20.0433 131.715 20.5552 130.77 22.3471C129.825 24.0878 113.841 55.471 113.841 55.471C113.329 56.4437 112.778 56.8021 112.109 56.8021C111.439 56.8021 110.888 56.3925 110.376 55.471C110.376 55.471 94.3527 24.0878 93.4472 22.3471C92.5417 20.6064 92.0299 20.0433 89.6283 20.0433H84.0377C82.7385 20.0433 82.148 21.3232 82.9747 22.9103L102.109 60.181C105.061 65.7614 107.266 68.0652 112.148 68.0652C117.03 68.0652 119.195 65.8126 122.187 60.181L141.321 22.9103C142.148 21.3232 141.557 20.0433 140.258 20.0433M66.5181 23.0638C66.5181 20.8624 67.1873 20.0433 68.8409 20.0433H72.9354C74.5889 20.0433 75.2582 20.9136 75.2582 23.0638V64.9935C75.2582 67.1949 74.5889 68.014 72.9354 68.014H68.8409C67.1873 68.014 66.5181 67.1437 66.5181 64.9935V23.0638ZM66.1637 9.80406C64.8251 8.06339 64.8251 6.68109 66.1637 4.99162L68.9984 1.3055C70.3369 -0.435167 71.3999 -0.435167 72.6992 1.3055L75.5338 4.99162C76.8724 6.73229 76.8724 8.11458 75.5338 9.80406L72.6992 13.4902C71.3606 15.2308 70.2976 15.2308 68.9984 13.4902L66.1637 9.80406ZM180.494 18.3026H163.211C145.258 18.3026 143.644 37.3476 143.644 43.1839C143.644 49.0203 145.258 68.0652 163.211 68.0652H180.494C198.447 68.0652 200.061 49.0203 200.061 43.1839C200.061 37.3476 198.447 18.3026 180.494 18.3026ZM57.6204 20.0433H52.0299C49.6283 20.0433 49.1558 20.5552 48.211 22.3471C47.3055 24.0878 31.2818 55.471 31.2818 55.471C30.77 56.4437 30.2188 56.8021 29.5495 56.8021C28.8803 56.8021 28.3291 56.3925 27.8173 55.471C27.8173 55.471 11.833 24.0878 10.8881 22.3471C9.98261 20.6064 9.4708 20.0433 7.06923 20.0433H1.47867C0.0219817 20.0433 -0.411089 21.3232 0.415682 22.9103C1.24245 24.4973 19.5102 60.181 19.5102 60.181C22.4629 65.7614 24.6677 68.0652 29.5102 68.0652C34.3921 68.0652 36.5574 65.8126 39.5102 60.181L58.6047 22.9103C59.4314 21.3232 58.959 20.0433 57.5417 20.0433H57.6204Z" fill="#415FFF"/>
</svg>
