<svg id="visual" viewBox="0 0 960 540" height="auto" width="auto"  xmlns="http://www.w3.org/2000/svg" xmlns:xlink="http://www.w3.org/1999/xlink" version="1.1"><rect x="0" y="0" width="960" height="540" fill="#001220"></rect><path d="M0 358L16 352.8C32 347.7 64 337.3 96 335.3C128 333.3 160 339.7 192 350C224 360.3 256 374.7 288 370.2C320 365.7 352 342.3 384 330.3C416 318.3 448 317.7 480 329.2C512 340.7 544 364.3 576 364.3C608 364.3 640 340.7 672 331.5C704 322.3 736 327.7 768 329.8C800 332 832 331 864 329C896 327 928 324 944 322.5L960 321L960 541L944 541C928 541 896 541 864 541C832 541 800 541 768 541C736 541 704 541 672 541C640 541 608 541 576 541C544 541 512 541 480 541C448 541 416 541 384 541C352 541 320 541 288 541C256 541 224 541 192 541C160 541 128 541 96 541C64 541 32 541 16 541L0 541Z" fill="#dd9d39"></path><path d="M0 351L16 359.5C32 368 64 385 96 387.3C128 389.7 160 377.3 192 373.3C224 369.3 256 373.7 288 374.7C320 375.7 352 373.3 384 372C416 370.7 448 370.3 480 365.5C512 360.7 544 351.3 576 351C608 350.7 640 359.3 672 360.7C704 362 736 356 768 358.7C800 361.3 832 372.7 864 373C896 373.3 928 362.7 944 357.3L960 352L960 541L944 541C928 541 896 541 864 541C832 541 800 541 768 541C736 541 704 541 672 541C640 541 608 541 576 541C544 541 512 541 480 541C448 541 416 541 384 541C352 541 320 541 288 541C256 541 224 541 192 541C160 541 128 541 96 541C64 541 32 541 16 541L0 541Z" fill="#e08b36"></path><path d="M0 398L16 398C32 398 64 398 96 401.7C128 405.3 160 412.7 192 411.3C224 410 256 400 288 394C320 388 352 386 384 384.5C416 383 448 382 480 387.3C512 392.7 544 404.3 576 407.5C608 410.7 640 405.3 672 399.3C704 393.3 736 386.7 768 387.2C800 387.7 832 395.3 864 401.8C896 408.3 928 413.7 944 416.3L960 419L960 541L944 541C928 541 896 541 864 541C832 541 800 541 768 541C736 541 704 541 672 541C640 541 608 541 576 541C544 541 512 541 480 541C448 541 416 541 384 541C352 541 320 541 288 541C256 541 224 541 192 541C160 541 128 541 96 541C64 541 32 541 16 541L0 541Z" fill="#e07838"></path><path d="M0 457L16 450.7C32 444.3 64 431.7 96 430C128 428.3 160 437.7 192 443.3C224 449 256 451 288 445.7C320 440.3 352 427.7 384 423C416 418.3 448 421.7 480 425.3C512 429 544 433 576 433C608 433 640 429 672 431C704 433 736 441 768 441.3C800 441.7 832 434.3 864 430C896 425.7 928 424.3 944 423.7L960 423L960 541L944 541C928 541 896 541 864 541C832 541 800 541 768 541C736 541 704 541 672 541C640 541 608 541 576 541C544 541 512 541 480 541C448 541 416 541 384 541C352 541 320 541 288 541C256 541 224 541 192 541C160 541 128 541 96 541C64 541 32 541 16 541L0 541Z" fill="#df643d"></path><path d="M0 467L16 465.8C32 464.7 64 462.3 96 464.5C128 466.7 160 473.3 192 470.3C224 467.3 256 454.7 288 446.5C320 438.3 352 434.7 384 433C416 431.3 448 431.7 480 432.2C512 432.7 544 433.3 576 433.5C608 433.7 640 433.3 672 432.7C704 432 736 431 768 432.7C800 434.3 832 438.7 864 442.5C896 446.3 928 449.7 944 451.3L960 453L960 541L944 541C928 541 896 541 864 541C832 541 800 541 768 541C736 541 704 541 672 541C640 541 608 541 576 541C544 541 512 541 480 541C448 541 416 541 384 541C352 541 320 541 288 541C256 541 224 541 192 541C160 541 128 541 96 541C64 541 32 541 16 541L0 541Z" fill="#db5044"></path><path d="M0 487L16 485C32 483 64 479 96 480C128 481 160 487 192 486.2C224 485.3 256 477.7 288 478.7C320 479.7 352 489.3 384 487.8C416 486.3 448 473.7 480 467.3C512 461 544 461 576 466.2C608 471.3 640 481.7 672 482.8C704 484 736 476 768 471.8C800 467.7 832 467.3 864 467.5C896 467.7 928 468.3 944 468.7L960 469L960 541L944 541C928 541 896 541 864 541C832 541 800 541 768 541C736 541 704 541 672 541C640 541 608 541 576 541C544 541 512 541 480 541C448 541 416 541 384 541C352 541 320 541 288 541C256 541 224 541 192 541C160 541 128 541 96 541C64 541 32 541 16 541L0 541Z" fill="#d53a4c"></path><path d="M0 492L16 494.7C32 497.3 64 502.7 96 505.5C128 508.3 160 508.7 192 507.2C224 505.7 256 502.3 288 503C320 503.7 352 508.3 384 512C416 515.7 448 518.3 480 515.7C512 513 544 505 576 503.2C608 501.3 640 505.7 672 508.2C704 510.7 736 511.3 768 510.2C800 509 832 506 864 504.3C896 502.7 928 502.3 944 502.2L960 502L960 541L944 541C928 541 896 541 864 541C832 541 800 541 768 541C736 541 704 541 672 541C640 541 608 541 576 541C544 541 512 541 480 541C448 541 416 541 384 541C352 541 320 541 288 541C256 541 224 541 192 541C160 541 128 541 96 541C64 541 32 541 16 541L0 541Z" fill="#cc2255"></path></svg>